<svg xmlns="http://www.w3.org/2000/svg" xmlns:xlink="http://www.w3.org/1999/xlink" width="352.504" height="198.684" viewBox="0 0 352.504 198.684">
  <defs>
    <clipPath id="clip-path">
      <path id="Trazado_385" data-name="Trazado 385" d="M1253.013,3906.693a14.932,14.932,0,1,0,14.933-14.933,14.933,14.933,0,0,0-14.933,14.933" transform="translate(-1253.013 -3891.76)" fill="#5337f7"/>
    </clipPath>
    <clipPath id="clip-path-2">
      <path id="Trazado_385-2" data-name="Trazado 385" d="M1253.013,3906.693a14.932,14.932,0,1,0,14.933-14.933,14.933,14.933,0,0,0-14.933,14.933" transform="translate(-1253.013 -3891.76)" fill="#fff"/>
    </clipPath>
    <clipPath id="clip-path-3">
      <path id="Trazado_386" data-name="Trazado 386" d="M1295.57,3906.693a14.932,14.932,0,1,0,14.932-14.933,14.932,14.932,0,0,0-14.932,14.933" transform="translate(-1295.57 -3891.76)" fill="#5337f7"/>
    </clipPath>
    <clipPath id="clip-path-4">
      <path id="Trazado_386-2" data-name="Trazado 386" d="M1295.57,3906.693a14.932,14.932,0,1,0,14.932-14.933,14.932,14.932,0,0,0-14.932,14.933" transform="translate(-1295.57 -3891.76)" fill="#fff"/>
    </clipPath>
    <clipPath id="clip-path-5">
      <path id="Trazado_387" data-name="Trazado 387" d="M1338.126,3906.693a14.932,14.932,0,1,0,14.932-14.933,14.932,14.932,0,0,0-14.932,14.933" transform="translate(-1338.126 -3891.76)" fill="#5337f7"/>
    </clipPath>
    <clipPath id="clip-path-6">
      <path id="Trazado_387-2" data-name="Trazado 387" d="M1338.126,3906.693a14.932,14.932,0,1,0,14.932-14.933,14.932,14.932,0,0,0-14.932,14.933" transform="translate(-1338.126 -3891.76)" fill="#fff"/>
    </clipPath>
    <clipPath id="clip-path-7">
      <path id="Trazado_388" data-name="Trazado 388" d="M1380.682,3906.693a14.932,14.932,0,1,0,14.933-14.933,14.933,14.933,0,0,0-14.933,14.933" transform="translate(-1380.682 -3891.76)" fill="#5337f7"/>
    </clipPath>
    <clipPath id="clip-path-8">
      <path id="Trazado_388-2" data-name="Trazado 388" d="M1380.682,3906.693a14.932,14.932,0,1,0,14.933-14.933,14.933,14.933,0,0,0-14.933,14.933" transform="translate(-1380.682 -3891.76)" fill="#fff"/>
    </clipPath>
    <clipPath id="clip-path-9">
      <path id="Trazado_389" data-name="Trazado 389" d="M1423.239,3906.693a14.932,14.932,0,1,0,14.932-14.933,14.932,14.932,0,0,0-14.932,14.933" transform="translate(-1423.239 -3891.76)" fill="#d7db2e"/>
    </clipPath>
    <clipPath id="clip-path-10">
      <path id="Trazado_395" data-name="Trazado 395" d="M1253.013,3953.006a14.932,14.932,0,1,0,14.933-14.932,14.933,14.933,0,0,0-14.933,14.932" transform="translate(-1253.013 -3938.074)" fill="#5337f7"/>
    </clipPath>
    <clipPath id="clip-path-13">
      <path id="Trazado_396" data-name="Trazado 396" d="M1295.57,3953.006a14.932,14.932,0,1,0,14.932-14.932,14.932,14.932,0,0,0-14.932,14.932" transform="translate(-1295.57 -3938.074)" fill="#5337f7"/>
    </clipPath>
    <clipPath id="clip-path-15">
      <path id="Trazado_397" data-name="Trazado 397" d="M1338.126,3953.006a14.932,14.932,0,1,0,14.932-14.932,14.932,14.932,0,0,0-14.932,14.932" transform="translate(-1338.126 -3938.074)" fill="#d7db2e"/>
    </clipPath>
    <clipPath id="clip-path-16">
      <path id="Trazado_397-2" data-name="Trazado 397" d="M1338.126,3953.006a14.932,14.932,0,1,0,14.932-14.932,14.932,14.932,0,0,0-14.932,14.932" transform="translate(-1338.126 -3938.074)" fill="#fff"/>
    </clipPath>
    <clipPath id="clip-path-17">
      <path id="Trazado_398" data-name="Trazado 398" d="M1380.682,3953.006a14.932,14.932,0,1,0,14.933-14.932,14.933,14.933,0,0,0-14.933,14.932" transform="translate(-1380.682 -3938.074)" fill="#d7db2e"/>
    </clipPath>
    <clipPath id="clip-path-18">
      <path id="Trazado_398-2" data-name="Trazado 398" d="M1380.682,3953.006a14.932,14.932,0,1,0,14.933-14.932,14.933,14.933,0,0,0-14.933,14.932" transform="translate(-1380.682 -3938.074)" fill="#fff"/>
    </clipPath>
    <clipPath id="clip-path-19">
      <path id="Trazado_405" data-name="Trazado 405" d="M1253.013,3999.319a14.932,14.932,0,1,0,14.933-14.932,14.932,14.932,0,0,0-14.933,14.932" transform="translate(-1253.013 -3984.387)" fill="#5337f7"/>
    </clipPath>
    <clipPath id="clip-path-20">
      <path id="Trazado_405-2" data-name="Trazado 405" d="M1253.013,3999.319a14.932,14.932,0,1,0,14.933-14.932,14.932,14.932,0,0,0-14.933,14.932" transform="translate(-1253.013 -3984.387)" fill="#fff"/>
    </clipPath>
    <clipPath id="clip-path-21">
      <path id="Trazado_406" data-name="Trazado 406" d="M1295.57,3999.319a14.932,14.932,0,1,0,14.932-14.932,14.931,14.931,0,0,0-14.932,14.932" transform="translate(-1295.57 -3984.387)" fill="#5337f7"/>
    </clipPath>
    <clipPath id="clip-path-22">
      <path id="Trazado_406-2" data-name="Trazado 406" d="M1295.57,3999.319a14.932,14.932,0,1,0,14.932-14.932,14.931,14.931,0,0,0-14.932,14.932" transform="translate(-1295.57 -3984.387)" fill="#fff"/>
    </clipPath>
    <clipPath id="clip-path-23">
      <path id="Trazado_407" data-name="Trazado 407" d="M1338.126,3999.319a14.932,14.932,0,1,0,14.932-14.932,14.932,14.932,0,0,0-14.932,14.932" transform="translate(-1338.126 -3984.387)" fill="#e81483"/>
    </clipPath>
    <clipPath id="clip-path-24">
      <path id="Trazado_408" data-name="Trazado 408" d="M1380.682,3999.319a14.932,14.932,0,1,0,14.933-14.932,14.932,14.932,0,0,0-14.933,14.932" transform="translate(-1380.682 -3984.387)" fill="#e81483"/>
    </clipPath>
    <clipPath id="clip-path-25">
      <path id="Trazado_409" data-name="Trazado 409" d="M1423.239,3999.319a14.932,14.932,0,1,0,14.932-14.932,14.931,14.931,0,0,0-14.932,14.932" transform="translate(-1423.239 -3984.387)" fill="#e81483"/>
    </clipPath>
    <clipPath id="clip-path-26">
      <path id="Trazado_410" data-name="Trazado 410" d="M1465.8,3999.319a14.932,14.932,0,1,0,14.932-14.932,14.931,14.931,0,0,0-14.932,14.932" transform="translate(-1465.795 -3984.387)" fill="#e81483"/>
    </clipPath>
    <clipPath id="clip-path-27">
      <path id="Trazado_411" data-name="Trazado 411" d="M1508.351,3999.319a14.933,14.933,0,1,0,14.932-14.932,14.932,14.932,0,0,0-14.932,14.932" transform="translate(-1508.351 -3984.387)" fill="#e81483"/>
    </clipPath>
    <clipPath id="clip-path-28">
      <path id="Trazado_415" data-name="Trazado 415" d="M1253.013,4045.634a14.932,14.932,0,1,0,14.933-14.934,14.933,14.933,0,0,0-14.933,14.934" transform="translate(-1253.013 -4030.7)" fill="#5337f7"/>
    </clipPath>
    <clipPath id="clip-path-29">
      <path id="Trazado_415-2" data-name="Trazado 415" d="M1253.013,4045.634a14.932,14.932,0,1,0,14.933-14.934,14.933,14.933,0,0,0-14.933,14.934" transform="translate(-1253.013 -4030.7)" fill="#fff"/>
    </clipPath>
    <clipPath id="clip-path-30">
      <path id="Trazado_416" data-name="Trazado 416" d="M1295.57,4045.634A14.932,14.932,0,1,0,1310.5,4030.7a14.932,14.932,0,0,0-14.932,14.934" transform="translate(-1295.57 -4030.7)" fill="#5337f7"/>
    </clipPath>
    <clipPath id="clip-path-31">
      <path id="Trazado_416-2" data-name="Trazado 416" d="M1295.57,4045.634A14.932,14.932,0,1,0,1310.5,4030.7a14.932,14.932,0,0,0-14.932,14.934" transform="translate(-1295.57 -4030.7)" fill="#fff"/>
    </clipPath>
    <clipPath id="clip-path-32">
      <path id="Trazado_417" data-name="Trazado 417" d="M1338.126,4045.634a14.932,14.932,0,1,0,14.932-14.934,14.933,14.933,0,0,0-14.932,14.934" transform="translate(-1338.126 -4030.7)" fill="#5337f7"/>
    </clipPath>
    <clipPath id="clip-path-33">
      <path id="Trazado_417-2" data-name="Trazado 417" d="M1338.126,4045.634a14.932,14.932,0,1,0,14.932-14.934,14.933,14.933,0,0,0-14.932,14.934" transform="translate(-1338.126 -4030.7)" fill="#fff"/>
    </clipPath>
    <clipPath id="clip-path-34">
      <path id="Trazado_418" data-name="Trazado 418" d="M1380.682,4045.634a14.932,14.932,0,1,0,14.933-14.934,14.933,14.933,0,0,0-14.933,14.934" transform="translate(-1380.682 -4030.7)" fill="#5337f7"/>
    </clipPath>
    <clipPath id="clip-path-35">
      <path id="Trazado_418-2" data-name="Trazado 418" d="M1380.682,4045.634a14.932,14.932,0,1,0,14.933-14.934,14.933,14.933,0,0,0-14.933,14.934" transform="translate(-1380.682 -4030.7)" fill="#fff"/>
    </clipPath>
    <clipPath id="clip-path-36">
      <path id="Trazado_419" data-name="Trazado 419" d="M1423.239,4045.634a14.932,14.932,0,1,0,14.932-14.934,14.933,14.933,0,0,0-14.932,14.934" transform="translate(-1423.239 -4030.7)" fill="#d7db2e"/>
    </clipPath>
    <clipPath id="clip-path-37">
      <path id="Trazado_425" data-name="Trazado 425" d="M1253.013,4088.336a14.932,14.932,0,1,0,14.933-14.933,14.933,14.933,0,0,0-14.933,14.933" transform="translate(-1253.013 -4073.402)" fill="#5337f7"/>
    </clipPath>
    <clipPath id="clip-path-38">
      <path id="Trazado_425-2" data-name="Trazado 425" d="M1253.013,4088.336a14.932,14.932,0,1,0,14.933-14.933,14.933,14.933,0,0,0-14.933,14.933" transform="translate(-1253.013 -4073.402)" fill="#fff"/>
    </clipPath>
    <clipPath id="clip-path-39">
      <path id="Trazado_426" data-name="Trazado 426" d="M1295.57,4088.336A14.932,14.932,0,1,0,1310.5,4073.4a14.932,14.932,0,0,0-14.932,14.933" transform="translate(-1295.57 -4073.402)" fill="#d7db2e"/>
    </clipPath>
    <clipPath id="clip-path-40">
      <path id="Trazado_426-2" data-name="Trazado 426" d="M1295.57,4088.336A14.932,14.932,0,1,0,1310.5,4073.4a14.932,14.932,0,0,0-14.932,14.933" transform="translate(-1295.57 -4073.402)" fill="#fff"/>
    </clipPath>
    <clipPath id="clip-path-41">
      <path id="Trazado_427" data-name="Trazado 427" d="M1338.126,4088.336a14.932,14.932,0,1,0,14.932-14.933,14.932,14.932,0,0,0-14.932,14.933" transform="translate(-1338.126 -4073.402)" fill="#d7db2e"/>
    </clipPath>
    <clipPath id="clip-path-42">
      <path id="Trazado_427-2" data-name="Trazado 427" d="M1338.126,4088.336a14.932,14.932,0,1,0,14.932-14.933,14.932,14.932,0,0,0-14.932,14.933" transform="translate(-1338.126 -4073.402)" fill="#fff"/>
    </clipPath>
    <clipPath id="clip-path-43">
      <path id="Trazado_428" data-name="Trazado 428" d="M1380.682,4088.336a14.932,14.932,0,1,0,14.933-14.933,14.933,14.933,0,0,0-14.933,14.933" transform="translate(-1380.682 -4073.402)" fill="#d7db2e"/>
    </clipPath>
    <clipPath id="clip-path-44">
      <path id="Trazado_428-2" data-name="Trazado 428" d="M1380.682,4088.336a14.932,14.932,0,1,0,14.933-14.933,14.933,14.933,0,0,0-14.933,14.933" transform="translate(-1380.682 -4073.402)" fill="#fff"/>
    </clipPath>
    <clipPath id="clip-path-45">
      <path id="Trazado_429" data-name="Trazado 429" d="M1423.239,4088.336a14.932,14.932,0,1,0,14.932-14.933,14.932,14.932,0,0,0-14.932,14.933" transform="translate(-1423.239 -4073.402)" fill="#d7db2e"/>
    </clipPath>
  </defs>
  <g id="Grupo_718" data-name="Grupo 718" transform="translate(-185.853 -2983)">
    <g id="Grupo_428" data-name="Grupo 428" transform="translate(185.853 2983)">
      <g id="Grupo_427" data-name="Grupo 427" transform="translate(0 0)" clip-path="url(#clip-path)">
        <rect id="Rectángulo_366" data-name="Rectángulo 366" width="30.791" height="30.791" transform="matrix(0.032, -1, 1, 0.032, -0.941, 29.835)" fill="#5337f7"/>
      </g>
    </g>
    <g id="Grupo_691" data-name="Grupo 691" transform="translate(385.811 2983)">
      <g id="Grupo_427-2" data-name="Grupo 427" transform="translate(0 0)" clip-path="url(#clip-path-2)">
        <rect id="Rectángulo_366-2" data-name="Rectángulo 366" width="30.791" height="30.791" transform="matrix(0.032, -1, 1, 0.032, -0.941, 29.835)" fill="#fff"/>
      </g>
    </g>
    <g id="Grupo_430" data-name="Grupo 430" transform="translate(225.406 2983)">
      <g id="Grupo_429" data-name="Grupo 429" transform="translate(0 0)" clip-path="url(#clip-path-3)">
        <rect id="Rectángulo_367" data-name="Rectángulo 367" width="30.791" height="30.79" transform="matrix(0.032, -1, 1, 0.032, -0.941, 29.835)" fill="#5337f7"/>
      </g>
    </g>
    <g id="Grupo_693" data-name="Grupo 693" transform="translate(425.776 2983)">
      <g id="Grupo_429-2" data-name="Grupo 429" transform="translate(0 0)" clip-path="url(#clip-path-4)">
        <rect id="Rectángulo_367-2" data-name="Rectángulo 367" width="30.791" height="30.79" transform="matrix(0.032, -1, 1, 0.032, -0.941, 29.835)" fill="#fff"/>
      </g>
    </g>
    <g id="Grupo_432" data-name="Grupo 432" transform="translate(264.958 2983)">
      <g id="Grupo_431" data-name="Grupo 431" transform="translate(0 0)" clip-path="url(#clip-path-5)">
        <rect id="Rectángulo_368" data-name="Rectángulo 368" width="30.791" height="30.791" transform="translate(-0.941 29.834) rotate(-88.194)" fill="#5337f7"/>
      </g>
    </g>
    <g id="Grupo_697" data-name="Grupo 697" transform="translate(468.528 2983)">
      <g id="Grupo_431-2" data-name="Grupo 431" transform="translate(0 0)" clip-path="url(#clip-path-6)">
        <rect id="Rectángulo_368-2" data-name="Rectángulo 368" width="30.791" height="30.791" transform="translate(-0.941 29.834) rotate(-88.194)" fill="#fff"/>
      </g>
    </g>
    <g id="Grupo_434" data-name="Grupo 434" transform="translate(304.953 2983)">
      <g id="Grupo_433" data-name="Grupo 433" transform="translate(0 0)" clip-path="url(#clip-path-7)">
        <rect id="Rectángulo_369" data-name="Rectángulo 369" width="30.791" height="30.791" transform="translate(-0.941 29.834) rotate(-88.193)" fill="#5337f7"/>
      </g>
    </g>
    <g id="Grupo_703" data-name="Grupo 703" transform="translate(508.493 2983)">
      <g id="Grupo_433-2" data-name="Grupo 433" transform="translate(0 0)" clip-path="url(#clip-path-8)">
        <rect id="Rectángulo_369-2" data-name="Rectángulo 369" width="30.791" height="30.791" transform="translate(-0.941 29.834) rotate(-88.193)" fill="#fff"/>
      </g>
    </g>
    <g id="Grupo_436" data-name="Grupo 436" transform="translate(343.988 2983)">
      <g id="Grupo_435" data-name="Grupo 435" transform="translate(0 0)" clip-path="url(#clip-path-9)">
        <rect id="Rectángulo_370" data-name="Rectángulo 370" width="30.791" height="30.79" transform="matrix(0.032, -1, 1, 0.032, -0.941, 29.834)" fill="#d7db2e"/>
      </g>
    </g>
    <g id="Grupo_440" data-name="Grupo 440" transform="translate(185.853 3026.044)">
      <g id="Grupo_439" data-name="Grupo 439" transform="translate(0)" clip-path="url(#clip-path-10)">
        <rect id="Rectángulo_372" data-name="Rectángulo 372" width="31.179" height="31.18" transform="translate(-1.345 29.803) rotate(-87.417)" fill="#5337f7"/>
      </g>
    </g>
    <g id="Grupo_692" data-name="Grupo 692" transform="translate(385.811 3026.044)">
      <g id="Grupo_439-2" data-name="Grupo 439" transform="translate(0)" clip-path="url(#clip-path-10)">
        <rect id="Rectángulo_372-2" data-name="Rectángulo 372" width="31.179" height="31.18" transform="translate(-1.345 29.803) rotate(-87.417)" fill="#5337f7"/>
      </g>
    </g>
    <g id="Grupo_717" data-name="Grupo 717" transform="translate(343.988 3026.044)">
      <g id="Grupo_439-3" data-name="Grupo 439" transform="translate(0)" clip-path="url(#clip-path-10)">
        <rect id="Rectángulo_372-3" data-name="Rectángulo 372" width="31.179" height="31.18" transform="translate(-1.345 29.803) rotate(-87.417)" fill="#5337f7"/>
      </g>
    </g>
    <g id="Grupo_442" data-name="Grupo 442" transform="translate(225.406 3026.044)">
      <g id="Grupo_441" data-name="Grupo 441" clip-path="url(#clip-path-13)">
        <rect id="Rectángulo_373" data-name="Rectángulo 373" width="31.179" height="31.179" transform="translate(-1.345 29.803) rotate(-87.416)" fill="#5337f7"/>
      </g>
    </g>
    <g id="Grupo_694" data-name="Grupo 694" transform="translate(425.776 3026.044)">
      <g id="Grupo_441-2" data-name="Grupo 441" clip-path="url(#clip-path-13)">
        <rect id="Rectángulo_373-2" data-name="Rectángulo 373" width="31.179" height="31.179" transform="translate(-1.345 29.803) rotate(-87.416)" fill="#5337f7"/>
      </g>
    </g>
    <g id="Grupo_444" data-name="Grupo 444" transform="translate(264.958 3026.044)">
      <g id="Grupo_443" data-name="Grupo 443" clip-path="url(#clip-path-15)">
        <rect id="Rectángulo_374" data-name="Rectángulo 374" width="31.179" height="31.18" transform="translate(-1.345 29.803) rotate(-87.417)" fill="#d7db2e"/>
      </g>
    </g>
    <g id="Grupo_698" data-name="Grupo 698" transform="translate(468.528 3026.044)">
      <g id="Grupo_443-2" data-name="Grupo 443" clip-path="url(#clip-path-16)">
        <rect id="Rectángulo_374-2" data-name="Rectángulo 374" width="31.179" height="31.18" transform="translate(-1.345 29.803) rotate(-87.417)" fill="#fff"/>
      </g>
    </g>
    <g id="Grupo_446" data-name="Grupo 446" transform="translate(304.953 3026.044)">
      <g id="Grupo_445" data-name="Grupo 445" clip-path="url(#clip-path-17)">
        <rect id="Rectángulo_375" data-name="Rectángulo 375" width="31.179" height="31.18" transform="translate(-1.345 29.803) rotate(-87.417)" fill="#d7db2e"/>
      </g>
    </g>
    <g id="Grupo_704" data-name="Grupo 704" transform="translate(508.493 3026.044)">
      <g id="Grupo_445-2" data-name="Grupo 445" clip-path="url(#clip-path-18)">
        <rect id="Rectángulo_375-2" data-name="Rectángulo 375" width="31.179" height="31.18" transform="translate(-1.345 29.803) rotate(-87.417)" fill="#fff"/>
      </g>
    </g>
    <g id="Grupo_450" data-name="Grupo 450" transform="translate(185.853 3069.088)">
      <g id="Grupo_449" data-name="Grupo 449" transform="translate(0)" clip-path="url(#clip-path-19)">
        <rect id="Rectángulo_377" data-name="Rectángulo 377" width="30.298" height="30.298" transform="translate(-0.437 0.006) rotate(-0.838)" fill="#5337f7"/>
      </g>
    </g>
    <g id="Grupo_695" data-name="Grupo 695" transform="translate(468.528 3069.088)">
      <g id="Grupo_449-2" data-name="Grupo 449" clip-path="url(#clip-path-20)">
        <rect id="Rectángulo_377-2" data-name="Rectángulo 377" width="30.298" height="30.298" transform="translate(-0.437 0.006) rotate(-0.838)" fill="#fff"/>
      </g>
    </g>
    <g id="Grupo_452" data-name="Grupo 452" transform="translate(225.406 3069.088)">
      <g id="Grupo_451" data-name="Grupo 451" clip-path="url(#clip-path-21)">
        <rect id="Rectángulo_378" data-name="Rectángulo 378" width="30.297" height="30.298" transform="matrix(1, -0.015, 0.015, 1, -0.437, 0.007)" fill="#5337f7"/>
      </g>
    </g>
    <g id="Grupo_696" data-name="Grupo 696" transform="translate(508.492 3069.088)">
      <g id="Grupo_451-2" data-name="Grupo 451" clip-path="url(#clip-path-22)">
        <rect id="Rectángulo_378-2" data-name="Rectángulo 378" width="30.297" height="30.298" transform="matrix(1, -0.015, 0.015, 1, -0.437, 0.007)" fill="#fff"/>
      </g>
    </g>
    <g id="Grupo_454" data-name="Grupo 454" transform="translate(264.958 3069.088)">
      <g id="Grupo_453" data-name="Grupo 453" clip-path="url(#clip-path-23)">
        <rect id="Rectángulo_379" data-name="Rectángulo 379" width="30.298" height="30.298" transform="matrix(1, -0.015, 0.015, 1, -0.437, 0.006)" fill="#e81483"/>
      </g>
    </g>
    <g id="Grupo_456" data-name="Grupo 456" transform="translate(304.953 3069.088)">
      <g id="Grupo_455" data-name="Grupo 455" clip-path="url(#clip-path-24)">
        <rect id="Rectángulo_380" data-name="Rectángulo 380" width="30.298" height="30.298" transform="matrix(1, -0.015, 0.015, 1, -0.437, 0.006)" fill="#e81483"/>
      </g>
    </g>
    <g id="Grupo_458" data-name="Grupo 458" transform="translate(343.988 3069.088)">
      <g id="Grupo_457" data-name="Grupo 457" clip-path="url(#clip-path-25)">
        <rect id="Rectángulo_381" data-name="Rectángulo 381" width="30.297" height="30.298" transform="translate(-0.437 0.007) rotate(-0.839)" fill="#e81483"/>
      </g>
    </g>
    <g id="Grupo_460" data-name="Grupo 460" transform="translate(385.811 3069.088)">
      <g id="Grupo_459" data-name="Grupo 459" clip-path="url(#clip-path-26)">
        <rect id="Rectángulo_382" data-name="Rectángulo 382" width="30.297" height="30.298" transform="translate(-0.437 0.007) rotate(-0.839)" fill="#e81483"/>
      </g>
    </g>
    <g id="Grupo_462" data-name="Grupo 462" transform="translate(425.776 3069.088)">
      <g id="Grupo_461" data-name="Grupo 461" clip-path="url(#clip-path-27)">
        <rect id="Rectángulo_383" data-name="Rectángulo 383" width="30.3" height="30.298" transform="matrix(1, -0.015, 0.015, 1, -0.437, 0.007)" fill="#e81483"/>
      </g>
    </g>
    <g id="Grupo_466" data-name="Grupo 466" transform="translate(185.853 3112.131)">
      <g id="Grupo_465" data-name="Grupo 465" transform="translate(0)" clip-path="url(#clip-path-28)">
        <rect id="Rectángulo_385" data-name="Rectángulo 385" width="30.677" height="30.675" transform="matrix(0.028, -1, 1, 0.028, -0.822, 29.844)" fill="#5337f7"/>
      </g>
    </g>
    <g id="Grupo_700" data-name="Grupo 700" transform="translate(385.811 3112.131)">
      <g id="Grupo_465-2" data-name="Grupo 465" clip-path="url(#clip-path-29)">
        <rect id="Rectángulo_385-2" data-name="Rectángulo 385" width="30.677" height="30.675" transform="matrix(0.028, -1, 1, 0.028, -0.822, 29.844)" fill="#fff"/>
      </g>
    </g>
    <g id="Grupo_468" data-name="Grupo 468" transform="translate(225.406 3112.131)">
      <g id="Grupo_467" data-name="Grupo 467" clip-path="url(#clip-path-30)">
        <rect id="Rectángulo_386" data-name="Rectángulo 386" width="30.677" height="30.674" transform="matrix(0.028, -1, 1, 0.028, -0.822, 29.844)" fill="#5337f7"/>
      </g>
    </g>
    <g id="Grupo_701" data-name="Grupo 701" transform="translate(425.776 3112.131)">
      <g id="Grupo_467-2" data-name="Grupo 467" clip-path="url(#clip-path-31)">
        <rect id="Rectángulo_386-2" data-name="Rectángulo 386" width="30.677" height="30.674" transform="matrix(0.028, -1, 1, 0.028, -0.822, 29.844)" fill="#fff"/>
      </g>
    </g>
    <g id="Grupo_470" data-name="Grupo 470" transform="translate(264.958 3112.131)">
      <g id="Grupo_469" data-name="Grupo 469" clip-path="url(#clip-path-32)">
        <rect id="Rectángulo_387" data-name="Rectángulo 387" width="30.677" height="30.675" transform="matrix(0.028, -1, 1, 0.028, -0.822, 29.844)" fill="#5337f7"/>
      </g>
    </g>
    <g id="Grupo_702" data-name="Grupo 702" transform="translate(468.528 3112.131)">
      <g id="Grupo_469-2" data-name="Grupo 469" clip-path="url(#clip-path-33)">
        <rect id="Rectángulo_387-2" data-name="Rectángulo 387" width="30.677" height="30.675" transform="matrix(0.028, -1, 1, 0.028, -0.822, 29.844)" fill="#fff"/>
      </g>
    </g>
    <g id="Grupo_472" data-name="Grupo 472" transform="translate(304.953 3112.131)">
      <g id="Grupo_471" data-name="Grupo 471" clip-path="url(#clip-path-34)">
        <rect id="Rectángulo_388" data-name="Rectángulo 388" width="30.677" height="30.675" transform="translate(-0.822 29.844) rotate(-88.423)" fill="#5337f7"/>
      </g>
    </g>
    <g id="Grupo_706" data-name="Grupo 706" transform="translate(508.492 3112.131)">
      <g id="Grupo_471-2" data-name="Grupo 471" transform="translate(0)" clip-path="url(#clip-path-35)">
        <rect id="Rectángulo_388-2" data-name="Rectángulo 388" width="30.677" height="30.675" transform="translate(-0.822 29.844) rotate(-88.423)" fill="#fff"/>
      </g>
    </g>
    <g id="Grupo_474" data-name="Grupo 474" transform="translate(343.988 3112.131)">
      <g id="Grupo_473" data-name="Grupo 473" clip-path="url(#clip-path-36)">
        <rect id="Rectángulo_389" data-name="Rectángulo 389" width="30.677" height="30.674" transform="translate(-0.822 29.844) rotate(-88.423)" fill="#d7db2e"/>
      </g>
    </g>
    <g id="Grupo_478" data-name="Grupo 478" transform="translate(185.853 3151.819)">
      <g id="Grupo_477" data-name="Grupo 477" transform="translate(0)" clip-path="url(#clip-path-37)">
        <rect id="Rectángulo_391" data-name="Rectángulo 391" width="30.792" height="30.791" transform="matrix(0.032, -1, 1, 0.032, -0.941, 29.836)" fill="#5337f7"/>
      </g>
    </g>
    <g id="Grupo_710" data-name="Grupo 710" transform="translate(385.811 3151.819)">
      <g id="Grupo_477-2" data-name="Grupo 477" clip-path="url(#clip-path-38)">
        <rect id="Rectángulo_391-2" data-name="Rectángulo 391" width="30.792" height="30.791" transform="matrix(0.032, -1, 1, 0.032, -0.941, 29.836)" fill="#fff"/>
      </g>
    </g>
    <g id="Grupo_480" data-name="Grupo 480" transform="translate(225.406 3151.819)">
      <g id="Grupo_479" data-name="Grupo 479" clip-path="url(#clip-path-39)">
        <rect id="Rectángulo_392" data-name="Rectángulo 392" width="30.791" height="30.79" transform="translate(-0.941 29.836) rotate(-88.194)" fill="#d7db2e"/>
      </g>
    </g>
    <g id="Grupo_711" data-name="Grupo 711" transform="translate(425.776 3151.819)">
      <g id="Grupo_479-2" data-name="Grupo 479" clip-path="url(#clip-path-40)">
        <rect id="Rectángulo_392-2" data-name="Rectángulo 392" width="30.791" height="30.79" transform="translate(-0.941 29.836) rotate(-88.194)" fill="#fff"/>
      </g>
    </g>
    <g id="Grupo_482" data-name="Grupo 482" transform="translate(264.958 3151.819)">
      <g id="Grupo_481" data-name="Grupo 481" clip-path="url(#clip-path-41)">
        <rect id="Rectángulo_393" data-name="Rectángulo 393" width="30.792" height="30.791" transform="matrix(0.032, -1, 1, 0.032, -0.941, 29.835)" fill="#d7db2e"/>
      </g>
    </g>
    <g id="Grupo_712" data-name="Grupo 712" transform="translate(468.528 3151.819)">
      <g id="Grupo_481-2" data-name="Grupo 481" clip-path="url(#clip-path-42)">
        <rect id="Rectángulo_393-2" data-name="Rectángulo 393" width="30.792" height="30.791" transform="matrix(0.032, -1, 1, 0.032, -0.941, 29.835)" fill="#fff"/>
      </g>
    </g>
    <g id="Grupo_484" data-name="Grupo 484" transform="translate(304.953 3151.819)">
      <g id="Grupo_483" data-name="Grupo 483" clip-path="url(#clip-path-43)">
        <rect id="Rectángulo_394" data-name="Rectángulo 394" width="30.792" height="30.791" transform="translate(-0.941 29.836) rotate(-88.193)" fill="#d7db2e"/>
      </g>
    </g>
    <g id="Grupo_713" data-name="Grupo 713" transform="translate(508.492 3151.819)">
      <g id="Grupo_483-2" data-name="Grupo 483" transform="translate(0)" clip-path="url(#clip-path-44)">
        <rect id="Rectángulo_394-2" data-name="Rectángulo 394" width="30.792" height="30.791" transform="translate(-0.941 29.836) rotate(-88.193)" fill="#fff"/>
      </g>
    </g>
    <g id="Grupo_486" data-name="Grupo 486" transform="translate(343.988 3151.819)">
      <g id="Grupo_485" data-name="Grupo 485" clip-path="url(#clip-path-45)">
        <rect id="Rectángulo_395" data-name="Rectángulo 395" width="30.792" height="30.79" transform="translate(-0.941 29.836) rotate(-88.194)" fill="#d7db2e"/>
      </g>
    </g>
  </g>
</svg>
