<svg xmlns="http://www.w3.org/2000/svg" width="319.443" height="211.997" viewBox="0 0 319.443 211.997">
  <g id="Grupo_690" data-name="Grupo 690" transform="translate(-836.44 -2511)">
    <path id="Trazado_596" data-name="Trazado 596" d="M41.812,12.524c1.525-7,5.949-8.879,12-8.872,8,.008,16.017-.328,24.01-.789C83.7,2.523,89.555,1.745,95.75,1.13c.231,1.017.07,3.926,1.256,4.662,1.646,1.022,4.317.609,6.527.468,13.851-.883,17.169,1.257,22.978,14.1.756,1.671,3.184,2.95,5.113,3.653,4.243,1.545,7.972,3.221,8.832,8.363A5.458,5.458,0,0,0,142.9,35.6c7.2,4.333,8.367,8.059,4.721,15.94-.344.744-.781,1.445-1.166,2.151,8,8.049,8.808,13.066,3.985,22.78-.489.985-.014,2.528.216,3.775,1.2,6.493.989,12.829-3.16,18.273-4.845,6.357-9.814,12.654-15.219,18.526-1.5,1.625-4.7,2.109-7.178,2.294-3.405.255-6.869-.274-10.641-.486-.025,12.94,2.484,24.337,8.6,34.106,9.673,15.461,20.613,30.133,31.115,45.069,3.146,4.475,6.622,8.717,10.6,13.923H76.736c9.317-18.982,5.551-37.1-2.505-54.825-4.986-10.969-7.63-11.785-19.364-9.155a102.676,102.676,0,0,1-17.618,2.7c-8.516.389-11.753-3.352-12.006-11.792a8.709,8.709,0,0,0-2.347-5.8,18.008,18.008,0,0,1-6.427-13.17c-.216-4.988-1.256-8.044-6.842-9.037-6.106-1.087-6.746-3.888-3.15-9.183,2.532-3.73,4.769-7.659,7.227-11.442,3.4-5.236,3.942-10.418,1.243-16.319-1.158-2.533-.819-6-.433-8.941.816-6.218,2.112-12.372,3.211-18.552l-2.171-.635-5.286,16.15C7.186,55.77,9.306,49.431,11.592,42.8,3.912,47.776,1.315,55.9,3.464,67.135-2.864,60.022-.178,43.14,8.732,36.122c2.6-2.048,4.7-3.772,4.1-7.367a2.425,2.425,0,0,1,.324-1.784c3.852-4.387,7.58-8.909,11.728-13,4.665-4.6,10.273-4.575,16.931-1.444" transform="translate(836.439 2510.194)" fill="#5442f3"/>
    <path id="Trazado_595" data-name="Trazado 595" d="M271.12,211.468c-5.447-6.61-9.807-12.236-14.523-17.547-7.2-8.1-14.754-15.889-21.946-24-7.091-7.994-7.473-17.133-5.817-27.468,2.229-13.9,11.236-21.937,21.405-29.6,1.339-1.009,3.22-2.089,3.589-3.473,3.212-12.04,14.275-21.339,11.791-35.521-.756-4.312,1.735-9.1,2.037-13.72.21-3.23.4-7.584-1.431-9.624-6.637-7.407-9.382-16.623-13.4-25.265-.178-.385-.329-.927-.646-1.081-7.922-3.833-12.191-13.279-22.113-14.2-1.992-.185-3.745-2.264-5.748-3.154C219.629,4.73,215,2.236,210.062,1.035c-4.554-1.109-9.462-.9-14.22-.989a68.519,68.519,0,0,0-11.9.479c-8.08,1.27-16.083,3.026-24.133,4.493-1.41.257-2.91-.026-4.351.119-2.514.253-5.466-.1-7.444,1.1-9.05,5.5-18.286,11.077-21.367,22.3-1.085,3.955-.409,7.424,3.556,9.934,1.322.837,2.707,3.318,2.408,4.686-1.621,7.416-4.037,14.663-5.572,22.092a13.141,13.141,0,0,0,1.187,8.332c1.854,3.377,1.587,5.661-.731,8.572-4.364,5.482-8.548,11.132-12.432,16.961-2.908,4.364-2.163,7.773,3.333,9.891,7.2,2.774,6.9,4.506,4.754,11.5-1.2,3.923,1.054,8.908,1.771,13.412.5,3.164,1.723,6.39,1.418,9.469-.581,5.878-2.391,11.634-2.989,17.512-.477,4.7,1.222,8.793,7.055,10.723,1.177-1.815,2.016-4.18,3.685-5.475,4.082-3.167,8.215-6.746,12.943-8.479,5.694-2.088,10.443,1.889,12.217,7.721,1.017,3.346,2.58,6.96,4.983,9.37,8.739,8.767,8.587,18.339,3.776,28.711-1.134,2.446-2.155,4.944-3.481,8Z" transform="translate(796.715 2511)" fill="#d4e04e"/>
    <path id="Trazado_593" data-name="Trazado 593" d="M360.573,180.177c-12.621,8.893-24.886,10.484-38.015,1.419,6.953,11.449,16.316,20.933,18.163,34.953H263.708c.772-2.5,1.639-4.936,2.271-7.43,2.537-10,1.082-19.8-1.966-29.4-2.2-6.918-4.948-13.659-7.3-20.529-1.225-3.568-2.775-4.288-6.772-3.187-7.265,2-14.865,3.726-22.339,3.775-7.534.05-9.879-4.5-7.464-11.756,1-3,.52-4.358-1.789-7.074-2.631-3.1-3.662-8.872-2.982-13.095.7-4.37.292-6.763-3.393-8.963-4.786-2.855-4.954-5.013-1.433-9.646,2.657-3.5,5.341-7,7.647-10.721a18.885,18.885,0,0,0,2.183-6.42c1.467-7.885,2.743-15.807,4.171-24.174-10.671-5.976-11.346-15.869.078-25.457,24.69-20.719,53.285-25.482,84.126-18.788,7.622,1.654,14.2,5.66,17.346,13.679.521,1.328,2.344,2.4,3.805,3.063,10.794,4.873,16.478,13.711,16.23,24.978-.318,14.468-2.329,28.907-3.807,43.339-1.014,9.892-3.076,19.728-3.4,29.629-.524,16.1,1.231,30.787,21.656,41.805" transform="translate(760.026 2506.145)" fill="#f11d94"/>
    <path id="Trazado_594" data-name="Trazado 594" d="M363.99,222.57h86.355c-1.788-2.78-3.133-5.212-4.8-7.4-6.156-8.091-12.623-15.955-18.588-24.182-6.88-9.489-9.949-20.051-7.35-32.142l4.387.36c.5-2.787.98-5.619,1.52-8.438.955-4.981,1.871-9.776,6.3-13.38,2.22-1.8,3.641-5.022,4.6-7.877,4.026-11.982,8.959-24.053,6.289-36.957-1.574-7.609-4.6-15.039-7.884-22.129a41.16,41.16,0,0,0-8.841-11.9c-9.345-9-20.506-13.838-33.8-12.822-8.584.657-17.4.171-25.715,2.015-13.17,2.923-26.509,6.553-33.493,20.15A12.941,12.941,0,0,0,331.7,71.85c-.9,6.229-1.286,12.563-2.638,18.687-1.008,4.557-3.272,8.773-1.321,13.669.42,1.055-.286,2.889-1.014,4.013q-4.581,7.081-9.522,13.928c-3.807,5.259-3.731,7.469,1.939,10.067,4.56,2.088,5.42,4.155,4.14,9.177-.911,3.572,1.375,7.96,2.625,13.813C318.689,169.187,324,166.7,336,173.65a2.467,2.467,0,0,0,1.046.287c10.746.709,15.738,7.007,18.855,16.94,3.237,10.313,8.767,19.917,8.087,31.693" transform="translate(705.538 2500.427)" fill="#38ede6"/>
  </g>
</svg>
