<svg xmlns="http://www.w3.org/2000/svg" width="10.74" height="23.092" viewBox="0 0 10.74 23.092">
  <path id="Trazado_41" data-name="Trazado 41" d="M400.795,4250.123v3.994h2.391v11.5h4.753V4254.1c.97,0,1.88-.011,2.79.007.32.006.427-.1.44-.417.017-.462.1-.92.145-1.381.074-.714.143-1.428.22-2.206h-3.611c0-.63,0-1.2,0-1.771,0-.2-.006-.4.011-.6.069-.84.418-1.173,1.271-1.208.34-.014.679,0,1.02,0H411.5v-3.985c-1.071,0-2.118-.018-3.163.007a10.582,10.582,0,0,0-1.609.161,3.888,3.888,0,0,0-3.455,3.714c-.1,1.059-.073,2.127-.1,3.191,0,.163,0,.326,0,.516Z" transform="translate(-400.795 -4242.527)" fill="#fff"/>
</svg>
