<svg id="icono-instagram" xmlns="http://www.w3.org/2000/svg" width="23.085" height="23.092" viewBox="0 0 23.085 23.092">
  <path id="Trazado_979" data-name="Trazado 979" d="M32.1,21c1.809.054,3.632.053,5.448.174a6.124,6.124,0,0,1,5.921,5.935,88.428,88.428,0,0,1,0,10.885,6.121,6.121,0,0,1-5.927,5.93,88.142,88.142,0,0,1-10.845,0,6.12,6.12,0,0,1-5.978-5.958,88,88,0,0,1,0-10.847,6.128,6.128,0,0,1,5.947-5.949C28.465,21.054,30.276,21.054,32.1,21Zm.03,2.19c-1.633,0-3.267-.024-4.9.009a4.846,4.846,0,0,0-2.751.834,4.257,4.257,0,0,0-1.727,3.644c-.048,3.241-.03,6.484-.006,9.725a4.788,4.788,0,0,0,.807,2.723,4.237,4.237,0,0,0,3.661,1.765c3.253.05,6.508.032,9.762.006a4.762,4.762,0,0,0,2.687-.8,4.2,4.2,0,0,0,1.769-3.62c.055-3.278.035-6.559.007-9.838a4.7,4.7,0,0,0-.814-2.683,4.332,4.332,0,0,0-3.67-1.752C35.345,23.147,33.735,23.19,32.127,23.19Z" transform="translate(-20.547 -21)" fill="#fff"/>
  <path id="Trazado_980" data-name="Trazado 980" d="M279.916,274.639a5.907,5.907,0,1,1-5.916,5.9A5.929,5.929,0,0,1,279.916,274.639Zm3.816,5.919a3.826,3.826,0,1,0-3.877,3.814A3.814,3.814,0,0,0,283.732,280.559Z" transform="translate(-268.363 -268.998)" fill="#fff"/>
  <path id="Trazado_981" data-name="Trazado 981" d="M755.531,205.014a1.371,1.371,0,1,1,1.417-1.324A1.352,1.352,0,0,1,755.531,205.014Z" transform="translate(-737.891 -198.24)" fill="#fff"/>
</svg>
