<svg xmlns="http://www.w3.org/2000/svg" xmlns:xlink="http://www.w3.org/1999/xlink" width="204.685" height="67.059" viewBox="0 0 204.685 67.059">
  <defs>
    <clipPath id="clip-path">
      <rect id="Rectángulo_1239" data-name="Rectángulo 1239" width="204.685" height="67.059" fill="none"/>
    </clipPath>
  </defs>
  <g id="Grupo_1118" data-name="Grupo 1118" transform="translate(0 0)">
    <path id="Trazado_930" data-name="Trazado 930" d="M2.393,59.2,3.059,61H1.74Zm-.51-1.133L0,62.919H1.037l.4-1.1h1.94l.42,1.1H4.859L2.925,58.071Z" transform="translate(0 -4.401)" fill="#f4f1ec"/>
    <path id="Trazado_931" data-name="Trazado 931" d="M8.949,62.1H6.519V58.115H5.541v4.806H8.949Z" transform="translate(-0.42 -4.404)" fill="#f4f1ec"/>
    <g id="Grupo_1117" data-name="Grupo 1117" transform="translate(0 0)">
      <g id="Grupo_1116" data-name="Grupo 1116" clip-path="url(#clip-path)">
        <path id="Trazado_932" data-name="Trazado 932" d="M12.095,61.907a.969.969,0,0,1-.67.25,1.08,1.08,0,0,1-.86-.388,2.031,2.031,0,0,1-.333-1.311,1.871,1.871,0,0,1,.337-1.248,1.113,1.113,0,0,1,.879-.389,1,1,0,0,1,1.018.813l.97-.232a1.96,1.96,0,0,0-.5-.894,2.015,2.015,0,0,0-1.447-.525,2.147,2.147,0,0,0-1.641.668,2.642,2.642,0,0,0-.625,1.879,2.517,2.517,0,0,0,.621,1.8,2.09,2.09,0,0,0,1.588.659,2.09,2.09,0,0,0,1.286-.384,2.162,2.162,0,0,0,.725-1.187l-.946-.3a1.465,1.465,0,0,1-.4.787" transform="translate(-0.699 -4.394)" fill="#f4f1ec"/>
        <path id="Trazado_933" data-name="Trazado 933" d="M16.186,59.205,16.854,61H15.53Zm-.952,2.612h1.934l.423,1.1h1.065l-1.94-4.847H15.677l-1.886,4.847H14.83Z" transform="translate(-1.045 -4.401)" fill="#f4f1ec"/>
        <path id="Trazado_934" data-name="Trazado 934" d="M22.843,62.1H20.414V58.115h-.979v4.806h3.408Z" transform="translate(-1.473 -4.404)" fill="#f4f1ec"/>
        <path id="Trazado_935" data-name="Trazado 935" d="M26.5,61.383a1.043,1.043,0,0,1-.253.469.885.885,0,0,1-.4.2,2.488,2.488,0,0,1-.591.048h-.73V58.9h.439a4.462,4.462,0,0,1,.8.044.971.971,0,0,1,.454.226,1.131,1.131,0,0,1,.274.47,2.935,2.935,0,0,1,.1.865,3.181,3.181,0,0,1-.1.882m-.241-3.219a3.506,3.506,0,0,0-.922-.091H23.549v4.845h1.838a2.978,2.978,0,0,0,.867-.1,1.7,1.7,0,0,0,.686-.387,2.14,2.14,0,0,0,.521-.856,3.216,3.216,0,0,0,.147-1.031,3.621,3.621,0,0,0-.157-1.15,2.106,2.106,0,0,0-.464-.781,1.606,1.606,0,0,0-.729-.449" transform="translate(-1.785 -4.401)" fill="#f4f1ec"/>
        <path id="Trazado_936" data-name="Trazado 936" d="M29.135,56.522l-.453.986h.587l.9-.986Z" transform="translate(-2.174 -4.283)" fill="#f4f1ec"/>
        <rect id="Rectángulo_1235" data-name="Rectángulo 1235" width="0.979" height="4.844" transform="translate(26.263 53.674)" fill="#f4f1ec"/>
        <path id="Trazado_937" data-name="Trazado 937" d="M31.705,61l.655-1.79L33.028,61Zm.145-2.924-1.885,4.848h1.041l.4-1.1h1.937l.423,1.1h1.062l-1.933-4.848Z" transform="translate(-2.271 -4.401)" fill="#f4f1ec"/>
        <path id="Trazado_938" data-name="Trazado 938" d="M42.368,58.072H40.9l-.871,3.308-.875-3.308H37.695v4.845H38.6l0-3.813.954,3.813H40.5l.963-3.813,0,3.813h.9Z" transform="translate(-2.857 -4.401)" fill="#f4f1ec"/>
        <path id="Trazado_939" data-name="Trazado 939" d="M44.879,61l.657-1.792L46.2,61Zm3.127,1.923-1.938-4.848H45.025l-1.883,4.848h1.035l.4-1.1h1.937l.424,1.1Z" transform="translate(-3.27 -4.401)" fill="#f4f1ec"/>
        <path id="Trazado_940" data-name="Trazado 940" d="M47.1,58.072l1.772,2.809v2.036h.982V60.885l1.78-2.813H50.508l-1.116,1.921-1.144-1.921Z" transform="translate(-3.57 -4.401)" fill="#f4f1ec"/>
        <path id="Trazado_941" data-name="Trazado 941" d="M52.933,59.236a1.257,1.257,0,0,1,.977-.414,1.23,1.23,0,0,1,.967.41,1.8,1.8,0,0,1,.363,1.238,1.844,1.844,0,0,1-.374,1.264,1.222,1.222,0,0,1-.956.424,1.24,1.24,0,0,1-.97-.427,1.811,1.811,0,0,1-.376-1.243,1.836,1.836,0,0,1,.369-1.252m-1.378,1.283a2.514,2.514,0,0,0,.634,1.816,2.278,2.278,0,0,0,1.721.659,2.249,2.249,0,0,0,1.705-.664,2.99,2.99,0,0,0-.007-3.682,2.278,2.278,0,0,0-1.713-.665,2.623,2.623,0,0,0-1.043.191,1.921,1.921,0,0,0-.628.44,2.243,2.243,0,0,0-.45.665,3.109,3.109,0,0,0-.22,1.239" transform="translate(-3.907 -4.394)" fill="#f4f1ec"/>
        <path id="Trazado_942" data-name="Trazado 942" d="M58.694,60.122h-.724V58.895h.765c.4,0,.636.006.711.015a.552.552,0,0,1,.5.587.643.643,0,0,1-.1.362.514.514,0,0,1-.278.208,3.911,3.911,0,0,1-.872.055m2.058,1.852a5.043,5.043,0,0,0-.553-.787,2.243,2.243,0,0,0-.519-.406,1.527,1.527,0,0,0,.951-.446,1.3,1.3,0,0,0,.319-.9,1.354,1.354,0,0,0-.215-.769,1.045,1.045,0,0,0-.559-.464,3.422,3.422,0,0,0-1.129-.132H56.992v4.847h.979V60.9h.2a1.827,1.827,0,0,1,.5.052.844.844,0,0,1,.291.2c.089.1.263.338.517.714l.7,1.055h1.172Z" transform="translate(-4.319 -4.401)" fill="#f4f1ec"/>
        <rect id="Rectángulo_1236" data-name="Rectángulo 1236" width="0.911" height="0.912" transform="translate(47.276 65.445)" fill="#f4f1ec"/>
        <path id="Trazado_943" data-name="Trazado 943" d="M6.637,69.887a1.06,1.06,0,0,1-.252.456.892.892,0,0,1-.387.2,2.935,2.935,0,0,1-.582.042H4.7V67.439H5.13a4.532,4.532,0,0,1,.788.044.913.913,0,0,1,.447.221,1.128,1.128,0,0,1,.272.462,2.806,2.806,0,0,1,.1.848,3.1,3.1,0,0,1-.1.873m.479-2.73a1.66,1.66,0,0,0-.718-.438,3.508,3.508,0,0,0-.9-.09H3.734v4.765H5.545a2.811,2.811,0,0,0,.847-.1,1.694,1.694,0,0,0,.679-.38,2.112,2.112,0,0,0,.506-.841,3.125,3.125,0,0,0,.146-1.016,3.446,3.446,0,0,0-.157-1.124,2.091,2.091,0,0,0-.451-.774" transform="translate(-0.283 -5.049)" fill="#f4f1ec"/>
        <path id="Trazado_944" data-name="Trazado 944" d="M9.362,69.3h2.382V68.49H9.362V67.437h2.56v-.811H8.4V71.4h3.618v-.813H9.362Z" transform="translate(-0.637 -5.049)" fill="#f4f1ec"/>
        <path id="Trazado_945" data-name="Trazado 945" d="M17.687,70.368a.636.636,0,0,1-.348.189,5.073,5.073,0,0,1-.662.024h-.889V69.313h.775a3.163,3.163,0,0,1,.855.069.606.606,0,0,1,.3.215.615.615,0,0,1,.1.365.583.583,0,0,1-.137.406m-1.9-2.95h.551c.452,0,.726.008.82.021a.522.522,0,0,1,.361.164.527.527,0,0,1,.122.359.49.49,0,0,1-.142.372.653.653,0,0,1-.385.171c-.093.009-.323.018-.7.018h-.629Zm2.125,1.44a1.121,1.121,0,0,0,.663-1.034,1.086,1.086,0,0,0-.144-.558,1.224,1.224,0,0,0-.861-.591,5.56,5.56,0,0,0-.839-.045h-1.9v4.762h1.622c.609,0,1-.013,1.156-.03a1.4,1.4,0,0,0,.648-.226,1.323,1.323,0,0,0,.409-.491,1.441,1.441,0,0,0,.152-.636,1.143,1.143,0,0,0-.236-.719,1.257,1.257,0,0,0-.664-.432" transform="translate(-1.124 -5.049)" fill="#f4f1ec"/>
        <path id="Trazado_946" data-name="Trazado 946" d="M22.758,70.23a1.28,1.28,0,0,1-1.891-.008A1.778,1.778,0,0,1,20.495,69a1.8,1.8,0,0,1,.362-1.226,1.227,1.227,0,0,1,.957-.408,1.2,1.2,0,0,1,.954.4,1.785,1.785,0,0,1,.358,1.219,1.832,1.832,0,0,1-.367,1.243M21.8,66.54a2.631,2.631,0,0,0-1.026.189,1.837,1.837,0,0,0-.615.427,2.293,2.293,0,0,0-.445.655,3.082,3.082,0,0,0-.215,1.221,2.448,2.448,0,0,0,.628,1.786,2.49,2.49,0,0,0,3.359,0,2.475,2.475,0,0,0,.626-1.8,2.5,2.5,0,0,0-.628-1.819A2.231,2.231,0,0,0,21.8,66.54" transform="translate(-1.478 -5.042)" fill="#f4f1ec"/>
        <path id="Trazado_947" data-name="Trazado 947" d="M27.34,69.645h1.1v.6a2.088,2.088,0,0,1-.519.287,1.7,1.7,0,0,1-.6.116,1.241,1.241,0,0,1-.983-.428,1.826,1.826,0,0,1-.378-1.265,1.678,1.678,0,0,1,.373-1.185,1.293,1.293,0,0,1,1-.4,1.127,1.127,0,0,1,.693.2,1.018,1.018,0,0,1,.378.555l.956-.183a1.693,1.693,0,0,0-.64-1.03,2.292,2.292,0,0,0-1.386-.37,2.519,2.519,0,0,0-1.139.236,2.1,2.1,0,0,0-.91.894,2.713,2.713,0,0,0-.316,1.319,2.931,2.931,0,0,0,.283,1.265,2,2,0,0,0,.834.9,2.6,2.6,0,0,0,1.3.314,3.162,3.162,0,0,0,1.159-.222,2.706,2.706,0,0,0,.878-.515v-1.9H27.34Z" transform="translate(-1.892 -5.043)" fill="#f4f1ec"/>
        <path id="Trazado_948" data-name="Trazado 948" d="M33.48,70.23a1.232,1.232,0,0,1-.949.413,1.2,1.2,0,0,1-.945-.421,2.233,2.233,0,0,1-.008-2.448,1.333,1.333,0,0,1,1.913-.006,1.785,1.785,0,0,1,.355,1.219,1.813,1.813,0,0,1-.366,1.243m-.954-3.69a2.642,2.642,0,0,0-1.029.189,1.894,1.894,0,0,0-.615.427,2.283,2.283,0,0,0-.443.655,3.032,3.032,0,0,0-.217,1.221,2.459,2.459,0,0,0,.626,1.786,2.237,2.237,0,0,0,1.689.65,2.209,2.209,0,0,0,1.675-.653,2.935,2.935,0,0,0,0-3.619,2.259,2.259,0,0,0-1.685-.655" transform="translate(-2.29 -5.042)" fill="#f4f1ec"/>
        <path id="Trazado_949" data-name="Trazado 949" d="M39.012,66.626H35.229v.811H36.64V71.4H37.6V67.437h1.409Z" transform="translate(-2.67 -5.049)" fill="#f4f1ec"/>
        <path id="Trazado_950" data-name="Trazado 950" d="M40.523,69.5l.636-1.761.657,1.761Zm.141-2.872-1.853,4.769h1.02l.394-1.086h1.9l.414,1.086h1.05l-1.9-4.769Z" transform="translate(-2.941 -5.049)" fill="#f4f1ec"/>
        <path id="Trazado_951" data-name="Trazado 951" d="M40.991,66.077h.575l.89-.97H41.437Z" transform="translate(-3.107 -4.934)" fill="#f4f1ec"/>
        <path id="Trazado_952" data-name="Trazado 952" d="M49.739,69.887a1.032,1.032,0,0,1-.252.456.876.876,0,0,1-.388.2,2.931,2.931,0,0,1-.581.042H47.8V67.439h.433a4.6,4.6,0,0,1,.79.044.9.9,0,0,1,.442.221,1.093,1.093,0,0,1,.275.462,2.826,2.826,0,0,1,.1.848,3.115,3.115,0,0,1-.1.873m.479-2.73a1.639,1.639,0,0,0-.718-.438,3.492,3.492,0,0,0-.9-.09H46.834v4.765h1.811a2.843,2.843,0,0,0,.852-.1,1.646,1.646,0,0,0,.674-.38,2.1,2.1,0,0,0,.511-.841,3.153,3.153,0,0,0,.144-1.016,3.571,3.571,0,0,0-.152-1.124,2.164,2.164,0,0,0-.456-.774" transform="translate(-3.549 -5.049)" fill="#f4f1ec"/>
        <path id="Trazado_953" data-name="Trazado 953" d="M55.049,70.4a.953.953,0,0,1-.659.246,1.043,1.043,0,0,1-.844-.383,1.983,1.983,0,0,1-.323-1.285,1.866,1.866,0,0,1,.327-1.231,1.081,1.081,0,0,1,.863-.38,1,1,0,0,1,.647.216,1.011,1.011,0,0,1,.355.585l.949-.226a1.838,1.838,0,0,0-.486-.88,1.977,1.977,0,0,0-1.42-.521,2.1,2.1,0,0,0-1.615.662,2.587,2.587,0,0,0-.615,1.843,2.474,2.474,0,0,0,.614,1.777,2.243,2.243,0,0,0,2.823.267,2.159,2.159,0,0,0,.709-1.165l-.93-.3a1.411,1.411,0,0,1-.4.773" transform="translate(-3.958 -5.042)" fill="#f4f1ec"/>
        <rect id="Rectángulo_1237" data-name="Rectángulo 1237" width="0.913" height="0.911" transform="translate(52.566 65.456)" fill="#f4f1ec"/>
        <path id="Trazado_954" data-name="Trazado 954" d="M26.434,16.082c.823-.042,1.473-.376,1.515-.795,0-.374-.692-.8-1.556-.8-.824.047-1.256.463-1.256.839-.046.419.432.8,1.3.752" transform="translate(-1.905 -1.098)" fill="#f4f1ec"/>
        <path id="Trazado_955" data-name="Trazado 955" d="M17.355,43.745c-.475-.67-1.168-1-1.515-.795s-.348.965.128,1.632,1.042.835,1.386.625.433-.791,0-1.462" transform="translate(-1.182 -3.25)" fill="#f4f1ec"/>
        <path id="Trazado_956" data-name="Trazado 956" d="M36.245,15.329c0-.376-.435-.793-1.258-.838-.865,0-1.555.424-1.555.794.042.421.689.755,1.51.8.867.044,1.344-.334,1.3-.751" transform="translate(-2.534 -1.098)" fill="#f4f1ec"/>
        <path id="Trazado_957" data-name="Trazado 957" d="M28.673,48.246c-.865-.127-1.6.083-1.688.462s.476.921,1.3,1.085,1.387-.125,1.475-.542c.085-.376-.26-.835-1.086-1.006" transform="translate(-2.044 -3.653)" fill="#f4f1ec"/>
        <path id="Trazado_958" data-name="Trazado 958" d="M46.547,31.424c.045-.838-.3-1.507-.689-1.548-.437-.042-.91.585-.954,1.422-.042.794.347,1.254.732,1.295.438.043.87-.376.911-1.169" transform="translate(-3.403 -2.264)" fill="#f4f1ec"/>
        <path id="Trazado_959" data-name="Trazado 959" d="M16.636,31.3c-.043-.838-.52-1.465-.953-1.424-.391.043-.694.711-.647,1.548.041.794.476,1.212.863,1.172.435-.042.777-.5.737-1.3" transform="translate(-1.139 -2.264)" fill="#f4f1ec"/>
        <path id="Trazado_960" data-name="Trazado 960" d="M46.075,19.294c.386-.04.779-.5.734-1.3-.042-.833-.518-1.459-.95-1.421-.391.043-.736.711-.694,1.549.041.8.475,1.212.91,1.171" transform="translate(-3.423 -1.256)" fill="#f4f1ec"/>
        <path id="Trazado_961" data-name="Trazado 961" d="M44.158,43.745c-.476.671-.385,1.256,0,1.462.344.211.911.047,1.385-.625s.48-1.424.13-1.632-1.038.125-1.516.795" transform="translate(-3.322 -3.25)" fill="#f4f1ec"/>
        <path id="Trazado_962" data-name="Trazado 962" d="M15.475,19.293c.39.042.823-.373.866-1.169.044-.837-.259-1.506-.65-1.55-.433-.038-.909.589-.954,1.421-.041.8.3,1.26.738,1.3" transform="translate(-1.117 -1.256)" fill="#f4f1ec"/>
        <path id="Trazado_963" data-name="Trazado 963" d="M41.246,33.63c-.129-.044-.644.5-.644.5-.134-.418-.787-.418-.787-.418v.165c.438.043.524.629.391.838-.041.127.434.416.521.292a.622.622,0,0,1,.952,0l.088-.083s-.211-.585-.65-.5c0,0,.263-.71.129-.793" transform="translate(-3.017 -2.548)" fill="#f4f1ec"/>
        <path id="Trazado_964" data-name="Trazado 964" d="M38.689,35.8c-.517.749-1.128.917-1.514.665-.392-.206-.52-.835,0-1.547.479-.753,1.212-1.127,1.6-.918s.389,1.042-.086,1.8M29.278,22.248a.392.392,0,0,1-.429-.372.4.4,0,0,1,.429-.421.393.393,0,0,1,.39.421.38.38,0,0,1-.39.372M21.11,35.8c-.477-.758-.477-1.592-.088-1.8s1.123.165,1.6.918c.52.712.391,1.341,0,1.548-.389.25-1,.082-1.514-.666m17.712-1.885a1.9,1.9,0,0,0-2.6.294A1.748,1.748,0,0,0,37,36.536c-.646.053-1.476-.822-1.476-.822-.362.677.3,1.053.818,1.238-.074.05-.129.115-.2.167-.492-.122-.677.1-.677.1-.086-.029-1.169-1.205-1.973-2.037l.715-.141c-.523-1.2-1.923-1.465-2.874-2.194-.713-.547.088-.789.279-.607a2.858,2.858,0,0,0,3.38.466,3.61,3.61,0,0,1-1.863-1.844,4.011,4.011,0,0,0,4.587-.208,3.712,3.712,0,0,1-3.073-1.338,5.191,5.191,0,0,0,4.545-1.172,12.078,12.078,0,0,1-3.462-.961c3.943-.123,4.288-2.93,4.333-2.93-1.087.713-3.986.376-3.986.376,4.116-1.462,3.811-4.848,3.811-4.848-.872,1.294-4.848,2.55-4.848,2.55a2.656,2.656,0,0,0-1.948,2.422.968.968,0,0,1-.956.837c-1.057,0-1.042-1.535-1.042-2.258,0-1.089-.041-2.337-.822-2.337H28.719c-.282,0-.767-.033-.968.207-.4.469-.341,1.71-.16,1.464a1.835,1.835,0,0,1,1,0c.5.143.131,1.7.131,2.05a.941.941,0,0,1-.956.874.965.965,0,0,1-.953-.837,2.673,2.673,0,0,0-1.9-2.422s-4.069-1.256-4.933-2.55c0,0-.3,3.426,3.851,4.935,0,0-2.943.25-4.025-.464.041,0,.56,2.93,4.5,3.055a13.278,13.278,0,0,1-3.548.751,5.024,5.024,0,0,0,4.635,1.506,4.39,4.39,0,0,1-3.251,1.09,4.021,4.021,0,0,0,4.592.292,3.421,3.421,0,0,1-1.821,1.76,2.913,2.913,0,0,0,3.42-.466c.23-.256.973.041.23.61-.986.756-2.4.938-3,2.191l.73.145c-.819.829-1.915,2-2.03,2.033,0,0-.166-.221-.626-.122-.063-.047-.109-.1-.179-.149.521-.185,1.185-.561.822-1.238,0,0-.831.874-1.469.822a1.756,1.756,0,0,0,.774-2.326,1.9,1.9,0,0,0-2.6-.293,1.828,1.828,0,0,0-.867,2.424,1.8,1.8,0,0,0,2.46.334,2.7,2.7,0,0,1-1.463.881s.531,1.03,1.716-.336c.076.051.125.108.192.159-.315.249-.453.665-.19.85,0,0-.13.666.648.627a.625.625,0,0,0,.812.177,9.74,9.74,0,0,1,.327,2.288l1,.043a7.63,7.63,0,0,0-.92-3.1c.153-.134.239-.317.082-.492a28.494,28.494,0,0,1,2.464-1.6l.135.676a2.861,2.861,0,0,1,1.507-1,4.166,4.166,0,0,0-.813,3.345s.171-.543,1.042-.631c0,0-1.215,1.469.732,4.312,1.949-2.844.826-4.312.826-4.312a1.231,1.231,0,0,1,1.079.631,4.239,4.239,0,0,0-.865-3.371A2.764,2.764,0,0,1,32.4,36.846l.139-.69c1.043.649,2.488,1.557,2.462,1.611-.163.178-.055.365.105.5a7.821,7.821,0,0,0-.919,3.1l1-.042a10.006,10.006,0,0,1,.327-2.28.643.643,0,0,0,.786-.185c.778.04.654-.627.654-.627.25-.179.128-.576-.191-.824a2.839,2.839,0,0,1,.218-.185c1.18,1.366,1.715.336,1.715.336a2.707,2.707,0,0,1-1.463-.881,1.8,1.8,0,0,0,2.46-.333,1.83,1.83,0,0,0-.864-2.425" transform="translate(-1.5 -1.499)" fill="#f4f1ec"/>
        <path id="Trazado_965" data-name="Trazado 965" d="M20.57,35.009c.083.124.562-.165.518-.291-.128-.21-.042-.8.392-.836v-.17s-.652,0-.783.417c0,0-.518-.542-.647-.5-.128.081.129.792.129.792-.434-.079-.65.5-.65.5l.085.083a.625.625,0,0,1,.955,0" transform="translate(-1.48 -2.548)" fill="#f4f1ec"/>
        <path id="Trazado_966" data-name="Trazado 966" d="M34.977,39.916a1.948,1.948,0,0,0-1.3-.587,1.772,1.772,0,0,0,.48,1.421,1.668,1.668,0,0,0,1.3.627,2.063,2.063,0,0,0-.478-1.461" transform="translate(-2.552 -2.98)" fill="#f4f1ec"/>
        <path id="Trazado_967" data-name="Trazado 967" d="M25.854,41.378a1.685,1.685,0,0,0,1.3-.628,1.781,1.781,0,0,0,.473-1.42,1.947,1.947,0,0,0-1.3.586,2.065,2.065,0,0,0-.477,1.461" transform="translate(-1.959 -2.98)" fill="#f4f1ec"/>
        <path id="Trazado_968" data-name="Trazado 968" d="M31.51,20.522l.867-1.339-1.344.5-.479-1.209-.518,1.209-1.387-.5.91,1.339Z" transform="translate(-2.171 -1.4)" fill="#f4f1ec"/>
        <path id="Trazado_969" data-name="Trazado 969" d="M45.2,33.462a1.77,1.77,0,0,1-1.232.463,4.144,4.144,0,0,1-.2,2.5l-.688-.543c1.031-2.074-.414-2.811-.327-4.114-1.475.313-1.318-.654-1.318-.654a2.409,2.409,0,0,0,1.575.074,1.645,1.645,0,0,1-1.665-1.536,1.84,1.84,0,0,1,2.039-1.344A1.739,1.739,0,0,1,45.16,29.9a1.742,1.742,0,0,1-1.9,1.306c.465.381,1.6.2,1.6.2-.129.81-1.075.578-1.549.4-.041.282.032.569.382,1.311a3.223,3.223,0,0,1,.171.4,1.3,1.3,0,0,1,.437-.73,1.689,1.689,0,0,1,1.338-.461,1.354,1.354,0,0,1-.433,1.131m-.655,6.9a.539.539,0,0,0-.868,0c-.046.087-.522-.2-.478-.29a.547.547,0,0,0-.347-.8l.043-.123s.557,0,.694.375c0,0,.475-.5.605-.416.089.083-.176.712-.176.712.43-.085.653.458.653.458Zm-.434,2.262a1.734,1.734,0,0,1-2.3.287,2.447,2.447,0,0,0,1.34.841s-.494.849-1.486-.231c-.453.656-1.186.838-1.815,1.322a1.686,1.686,0,0,1,.573-.045,1.866,1.866,0,0,1,1.3.581,1.578,1.578,0,0,1-1.25.465,2.062,2.062,0,0,1-1.152-.455,3.215,3.215,0,0,0-.5,1.206l-.911.042a4.53,4.53,0,0,1,2.164-2.591c.738-.374.977-.563,1.121-.821-.473-.136-1.38-.5-.99-1.189,0,0,.778.754,1.376.73a1.586,1.586,0,0,1-.637-2.15,1.752,1.752,0,0,1,2.383-.209,1.682,1.682,0,0,1,.777,2.216M29.3,43.885a11.71,11.71,0,0,0-6.751-1.638,4.365,4.365,0,0,1-4.433-4.433L18.1,17.278c2.727,1.462,8.724.481,11.343-.884,2.645,1.377,8.575,2.324,11.342.884l-.026,20.536a4.642,4.642,0,0,1-4.748,4.433A11.65,11.65,0,0,0,29.3,43.885m4.238,3.252a3.379,3.379,0,0,0-1.254-.509,1.756,1.756,0,0,1-1.692,1.642,2.2,2.2,0,0,1,.48-1.343,1.643,1.643,0,0,1,.453-.315,7.385,7.385,0,0,1-2.24.3c.086,1.433-.9,1.143-.9,1.143a2.361,2.361,0,0,0,.325-1.492,1.631,1.631,0,0,1-1.8,1.362,1.749,1.749,0,0,1-1.124-2.088,1.715,1.715,0,0,1,1.861-1.507A1.681,1.681,0,0,1,28.761,46.3c.442-.384.406-1.421.406-1.421.812.217.451,1.071.224,1.486a2.546,2.546,0,0,0,1.377-.149,4.9,4.9,0,0,1,3.463.334ZM25.528,46.01c-.262-.044-.738.209-.65.625h-.127s-.218-.5.127-.749c0,0-.691-.3-.648-.42.045-.089.737-.089.737-.089-.215-.373.213-.75.213-.75l.134.086c-.261.333.085.752.3.794.129.043,0,.542-.088.5m-5.479.583a3.16,3.16,0,0,0-.5-1.205,2.182,2.182,0,0,1-1.145.451,1.509,1.509,0,0,1-1.254-.461,1.8,1.8,0,0,1,1.3-.581,1.7,1.7,0,0,1,.569.043c-.621-.481-1.36-.663-1.8-1.319-1,1.08-1.494.231-1.494.231a2.393,2.393,0,0,0,1.365-.877,1.7,1.7,0,0,1-2.317-.251,1.679,1.679,0,0,1,.782-2.216,1.751,1.751,0,0,1,2.381.209,1.573,1.573,0,0,1-.678,2.147c.6.055,1.415-.727,1.415-.727.389.692-.522,1.054-.991,1.189.144.258.384.446,1.12.821a4.507,4.507,0,0,1,2.163,2.591Zm-5.756-6.232L14.2,40.28s.217-.543.652-.458c0,0-.3-.628-.176-.712s.607.416.607.416c.131-.375.693-.375.693-.375l.044.122a.571.571,0,0,0-.392.8c.086.086-.39.378-.433.29a.577.577,0,0,0-.907,0M13.27,32.33a1.649,1.649,0,0,1,1.3.461,1.12,1.12,0,0,1,.45.736,3.013,3.013,0,0,1,.161-.4c.348-.742.42-1.03.38-1.311-.477.171-1.421.4-1.552-.406,0,0,1.135.183,1.6-.2A1.746,1.746,0,0,1,13.7,29.9a1.74,1.74,0,0,1,1.776-1.592,1.842,1.842,0,0,1,2.036,1.343,1.652,1.652,0,0,1-1.667,1.537,2.608,2.608,0,0,0,1.625-.074s.112.963-1.359.657c.125,1.3-1.326,2.037-.329,4.111l-.7.543a4.243,4.243,0,0,1-.177-2.5,1.77,1.77,0,0,1-1.251-.463,1.2,1.2,0,0,1-.389-1.131m3.2-4.852-.041.125a.521.521,0,0,0-.7.459c0,.128-.515.172-.557.045a.594.594,0,0,0-.781-.418l-.043-.127s.43-.335.777-.085c0,0,.089-.669.216-.669.13-.041.347.626.347.626.258-.247.778.043.778.043m-.964-11.41a1.672,1.672,0,0,1,1.777,1.544,1.787,1.787,0,0,1-1.857,1.339,2.733,2.733,0,0,0,1.552.167c-.126.811-1.075.577-1.547.4-.043.286.029.572.38,1.313a4.381,4.381,0,0,1,.088,3.3l-.694-.543a3.237,3.237,0,0,0,.347-1.273,1.907,1.907,0,0,1-1.211-.317,1.384,1.384,0,0,1-.694-1.047,2.161,2.161,0,0,1,1.427.25,1.9,1.9,0,0,1,.391.353c-.2-.751-.666-1.317-.594-2.079-1.466.308-1.351-.656-1.351-.656a2.686,2.686,0,0,0,1.547.1,1.686,1.686,0,0,1-1.6-1.567,1.773,1.773,0,0,1,2.035-1.295m-.215-.921s.215-.669.346-.629c.133,0,.216.669.216.669.348-.253.781.125.781.125l-.045.085a.6.6,0,0,0-.777.418c-.042.128-.563.084-.563-.039a.536.536,0,0,0-.7-.464l-.042-.125s.518-.292.779-.04m3.936.211a3.517,3.517,0,0,0,1.341.236,1.78,1.78,0,0,1,.217-1.2,1.449,1.449,0,0,1,1.04-.754,1.713,1.713,0,0,1-.175,1.38,1.418,1.418,0,0,1-.348.447c.758-.239,1.3-.74,2.078-.768-.384-1.39.61-1.352.61-1.352a2.34,2.34,0,0,0,.042,1.534,1.6,1.6,0,0,1,1.429-1.7,1.682,1.682,0,0,1,1.562,1.8,1.63,1.63,0,0,1-1.429,1.841,1.665,1.665,0,0,1-1.558-1.7c-.352.474-.09,1.536-.09,1.536-.794-.032-.654-.993-.54-1.445a2.981,2.981,0,0,0-1.278.482,4.906,4.906,0,0,1-3.42.379Zm8.055-.631c.217,0,.648-.332.43-.71l.129-.043s.349.461.089.752c0,0,.735.128.735.25s-.689.252-.689.252c.258.292-.045.756-.045.756H27.8a.6.6,0,0,0-.519-.756c-.131,0-.131-.5,0-.5m3.679-.752.129.043c-.214.378.215.71.436.71.125,0,.125.5,0,.5a.607.607,0,0,0-.524.756h-.127s-.3-.464-.044-.756c0,0-.692-.126-.692-.252s.737-.25.737-.25c-.26-.291.085-.752.085-.752m2.381-.794a1.6,1.6,0,0,1,1.433,1.7,2.323,2.323,0,0,0,.038-1.534s1-.038.614,1.352c.774.028,1.319.528,2.078.768a1.5,1.5,0,0,1-.35-.447,1.685,1.685,0,0,1-.17-1.38,1.453,1.453,0,0,1,1.036.754,1.763,1.763,0,0,1,.215,1.2,3.511,3.511,0,0,0,1.34-.236l.522.711a4.906,4.906,0,0,1-3.42-.379,3.016,3.016,0,0,0-1.277-.482c.108.453.253,1.413-.543,1.445,0,0,.264-1.059-.09-1.539a1.666,1.666,0,0,1-1.555,1.7,1.63,1.63,0,0,1-1.429-1.843,1.679,1.679,0,0,1,1.557-1.795M44.515,27.564l-.048.124a.593.593,0,0,0-.779.42c0,.127-.563.083-.563-.045a.518.518,0,0,0-.691-.459l-.042-.125s.518-.29.773-.043c0,0,.224-.666.348-.626.135,0,.22.669.22.669.345-.25.783.086.783.086m-1.148-11.5A1.766,1.766,0,0,1,45.4,17.36a1.681,1.681,0,0,1-1.59,1.571,2.7,2.7,0,0,0,1.549-.105s.121.966-1.369.654c.059.782-.437,1.359-.626,2.136a1.786,1.786,0,0,1,.438-.409,2.16,2.16,0,0,1,1.429-.25,1.552,1.552,0,0,1-.691,1.047,1.972,1.972,0,0,1-1.239.317,3.314,3.314,0,0,0,.369,1.273l-.691.543a4.194,4.194,0,0,1,.085-3.3c.353-.74.42-1.027.38-1.312-.474.174-1.419.4-1.545-.4a2.724,2.724,0,0,0,1.549-.167,1.789,1.789,0,0,1-1.858-1.339,1.672,1.672,0,0,1,1.779-1.544m-.349-.882s.089-.668.223-.668c.126-.043.343.628.343.628.259-.252.78.04.78.04l-.045.125a.519.519,0,0,0-.692.464c0,.123-.564.167-.564.039a.594.594,0,0,0-.775-.418l-.047-.085s.435-.377.778-.125m-13.688-4.75A18.386,18.386,0,0,1,12.314,10.4V40.935a6.77,6.77,0,0,0,6.885,6.7c3.686,0,6.965.513,10.131,2.543a17.917,17.917,0,0,1,10.1-2.543,6.806,6.806,0,0,0,6.921-6.7V10.4a18.408,18.408,0,0,1-17.017.041" transform="translate(-0.933 -0.788)" fill="#f4f1ec"/>
        <path id="Trazado_970" data-name="Trazado 970" d="M106.782,48.025H103.91V44.553h2.872a1.737,1.737,0,1,1,0,3.472M103.91,37.792h2.268a1.732,1.732,0,1,1,0,3.462H103.91Zm7.986,1.731a5.7,5.7,0,0,0-5.718-5.677H99.306V51.971h7.476a5.663,5.663,0,0,0,4.251-9.464,5.559,5.559,0,0,0,.862-2.983" transform="translate(-7.526 -2.565)" fill="#f4f1ec"/>
        <path id="Trazado_971" data-name="Trazado 971" d="M123.5,47.515a4.565,4.565,0,1,1,4.224-4.559,4.4,4.4,0,0,1-4.224,4.559m0-14.031a9.484,9.484,0,1,0,9.14,9.472,9.326,9.326,0,0,0-9.14-9.472" transform="translate(-8.666 -2.537)" fill="#f4f1ec"/>
        <path id="Trazado_972" data-name="Trazado 972" d="M145.46,45.751H147.6v.99a5.085,5.085,0,0,1-2.7.776,4.562,4.562,0,1,1,0-9.107,4.968,4.968,0,0,1,3.373,1.289l.479.439,3.319-3.635-.475-.435a9.872,9.872,0,0,0-6.7-2.583,9.481,9.481,0,1,0,0,18.954,9.981,9.981,0,0,0,2.7-.366v.037h4.921V40.83H145.46Z" transform="translate(-10.242 -2.537)" fill="#f4f1ec"/>
        <path id="Trazado_973" data-name="Trazado 973" d="M180.8,39.151V52.117h5.833V39.151h5.506V33.578H175.275v5.573Z" transform="translate(-13.283 -2.544)" fill="#f4f1ec"/>
        <path id="Trazado_974" data-name="Trazado 974" d="M219.06,59.6,207.9,29.878h-10.02l-8.2,21.92h6.077l7.125-18.033L212.987,59.6Z" transform="translate(-14.375 -2.264)" fill="#f4f1ec"/>
        <path id="Trazado_975" data-name="Trazado 975" d="M164.275,47.518a4.567,4.567,0,1,1,4.223-4.561,4.4,4.4,0,0,1-4.223,4.561m8.057-9.029-.008-.018a9.118,9.118,0,0,0-8.049-4.987,9.484,9.484,0,1,0,9.14,9.472,9.72,9.72,0,0,0-1.083-4.468" transform="translate(-11.757 -2.537)" fill="#f4f1ec"/>
        <path id="Trazado_976" data-name="Trazado 976" d="M210.42,18.035l5.471-2.242-7.283-2.61L203.944.684l-4.836,9.205-9.873-2.032,6.967,7.555-3.4,9.145,12.262-4.409,8.947,7.518Z" transform="translate(-14.341 -0.052)" fill="#f4f1ec"/>
        <path id="Trazado_977" data-name="Trazado 977" d="M189.56,19.608l2.244-1.446-2.683-.569-.773-2.679L187.28,17.2l-4.065-.864,3.178,3.282-.974,2.652,2.855-1.836,2.211,1.789Z" transform="translate(-13.885 -1.13)" fill="#f4f1ec"/>
        <path id="Trazado_978" data-name="Trazado 978" d="M215.742,4.9l2.341-1.506-2.8-.6-.8-2.8-1.36,2.336-4-.852,3.317,3.427L211.419,7.68,214.4,5.76l2.3,1.871Z" transform="translate(-15.848 0)" fill="#f4f1ec"/>
        <rect id="Rectángulo_1238" data-name="Rectángulo 1238" width="1.054" height="57.616" transform="translate(73.832 9.444)" fill="#f4f1ec"/>
      </g>
    </g>
  </g>
</svg>
