<?xml version="1.0" encoding="utf-8"?>
<!-- Generator: Adobe Illustrator 26.0.1, SVG Export Plug-In . SVG Version: 6.00 Build 0)  -->
<svg version="1.1" id="Capa_1" xmlns="http://www.w3.org/2000/svg" xmlns:xlink="http://www.w3.org/1999/xlink" x="0px" y="0px"
	 viewBox="0 0 902.8 194" style="enable-background:new 0 0 902.8 194;" xml:space="preserve">
<style type="text/css">
	.st0{fill:#FFFFFF;}
</style>
<g>
	<g>
		<path class="st0" d="M232.6,113.8c0,1.8-0.6,3.3-1.9,4.6c-1.3,1.2-2.8,1.9-4.6,1.9h-11.4c-1.8,0-3.4-0.6-4.6-1.9s-1.9-2.8-1.9-4.6
			V63.4l-20.4,23.7c-1.2,1.5-2.9,2.3-5,2.3c-2.1,0-3.8-0.8-5.1-2.4L157,63.4v50.4c0,1.8-0.6,3.3-1.9,4.6c-1.3,1.2-2.9,1.9-4.8,1.9
			h-11.1c-1.9,0-3.5-0.6-4.8-1.9c-1.3-1.2-1.9-2.8-1.9-4.6V32.2c0-1.8,0.6-3.3,1.9-4.6c1.3-1.2,2.9-1.9,4.8-1.9h13.1
			c2.1,0,3.9,0.8,5.3,2.5L182.6,57l25-28.8c1.3-1.6,3-2.5,5.1-2.5H226c1.8,0,3.4,0.6,4.6,1.9s1.9,2.8,1.9,4.6L232.6,113.8
			L232.6,113.8z"/>
		<path class="st0" d="M367.2,113.8c0,1.8-0.6,3.3-1.9,4.6c-1.3,1.2-2.8,1.9-4.6,1.9h-11.5c-1.8,0-3.3-0.6-4.6-1.9
			c-1.3-1.2-1.9-2.8-1.9-4.6v-10.4h-51.2v10.4c0,1.8-0.6,3.3-1.9,4.6c-1.3,1.2-2.9,1.9-4.8,1.9h-11.1c-1.9,0-3.5-0.6-4.8-1.9
			c-1.3-1.2-1.9-2.8-1.9-4.6V73.3c0-14,4.9-25.9,14.7-35.8c9.8-9.9,21.6-14.8,35.5-14.8c13.9,0,25.7,4.9,35.5,14.8
			c9.8,9.9,14.6,21.8,14.6,35.8L367.2,113.8L367.2,113.8z M342.6,81.4v-9c0-7.7-2.5-14.3-7.5-19.6c-5-5.4-11-8-18-8s-13,2.6-18.1,8
			c-5.1,5.3-7.6,11.7-7.6,19.3v9.5H342.6z"/>
		<path class="st0" d="M502.3,65.6c0,8.2-3,15.2-9.1,21c-6.1,5.9-13.5,8.8-22.1,8.8H426v18.4c0,1.8-0.6,3.3-1.9,4.6
			c-1.3,1.2-2.9,1.9-4.8,1.9h-11.1c-1.9,0-3.5-0.6-4.8-1.9c-1.3-1.2-1.9-2.8-1.9-4.6V32.2c0-1.8,0.6-3.3,1.9-4.6
			c1.3-1.2,2.9-1.9,4.8-1.9h62.9c8.7,0,16,2.9,22.1,8.7c6.1,5.8,9.1,12.8,9.1,21.1V65.6z M477.8,65v-9.4c0-2.3-0.7-4.2-2-5.6
			c-1.3-1.5-2.9-2.2-4.7-2.2H426v25.1h45.1c1.8,0,3.4-0.7,4.7-2.2C477.1,69.2,477.8,67.3,477.8,65z"/>
		<path class="st0" d="M629.8,113.8c0,1.8-0.6,3.3-1.9,4.6c-1.3,1.2-2.8,1.9-4.6,1.9h-11.5c-1.8,0-3.3-0.6-4.6-1.9
			c-1.3-1.2-1.9-2.8-1.9-4.6v-10.4H554v10.4c0,1.8-0.6,3.3-1.9,4.6c-1.3,1.2-2.9,1.9-4.8,1.9h-11.1c-1.9,0-3.5-0.6-4.8-1.9
			c-1.3-1.2-1.9-2.8-1.9-4.6V73.3c0-14,4.9-25.9,14.7-35.8s21.6-14.8,35.5-14.8c13.9,0,25.7,4.9,35.5,14.8
			c9.8,9.9,14.6,21.8,14.6,35.8L629.8,113.8L629.8,113.8z M605.2,81.4v-9c0-7.7-2.5-14.3-7.5-19.6s-11-8-18-8c-7,0-13,2.6-18.1,8
			c-5.1,5.3-7.7,11.7-7.7,19.3v9.5H605.2z"/>
		<path class="st0" d="M759.5,91c0,8.2-3,15.1-9.1,20.8c-6.1,5.7-13.5,8.5-22.1,8.5h-59.8c-1.8,0-3.3-0.6-4.6-1.9
			c-1.3-1.2-1.9-2.8-1.9-4.6v-9.1c0-1.8,0.6-3.3,1.9-4.6c1.3-1.2,2.8-1.9,4.7-1.9h59.9c1.7,0,3.2-0.7,4.6-2c1.3-1.3,2-3.1,2-5.3
			s-0.7-3.9-2-5.2c-1.3-1.3-2.9-1.9-4.6-1.9h-37.9c-8.7,0-16.1-2.8-22.2-8.3s-9.2-12.4-9.2-20.5s3-15.1,9.2-20.8
			c6.1-5.7,13.5-8.5,22.2-8.5h61.2c1.8,0,3.4,0.6,4.6,1.9c1.3,1.2,1.9,2.8,1.9,4.6v19c0,1.8-0.6,3.3-1.9,4.6
			c-1.3,1.2-2.8,1.9-4.6,1.9h-10c-1.9,0-3.5-0.6-4.8-1.9c-1.3-1.2-1.9-2.8-1.9-4.6v-3.4h-44.6c-1.8,0-3.4,0.7-4.7,2
			s-1.9,3.1-1.9,5.3c0,4.6,2.2,6.9,6.6,6.9h37.9c8.7,0,16.1,2.8,22.2,8.4C756.5,75.9,759.5,82.8,759.5,91z"/>
	</g>
</g>
<g>
	<g>
		<path class="st0" d="M58.2,160.9c-2,0.3-4.3,0.3-6.4,0c-1.2-1.2-2.4-3-6.9-6.9c-0.7-0.6-1.3-1.1-2.3-1.5c0,2.9,0,5.8,0.1,8.4
			c-1.6,0.3-3.3,0.3-4.9,0c0.2-8.1,0.2-15.3,0-23.8c3.2-0.5,5.9-0.7,8.4-0.7c2.7,0,10.1,0.4,10.1,7.4c0,5.4-5.5,8.8-11.5,8.4
			c1.9,0.5,4,0.6,5.7,0.8C52.6,155.4,55,158.2,58.2,160.9z M42.5,150.7c1.1,0.1,2,0.1,2.5,0.1c3.3,0,6-1.8,6-6.5
			c0-4.8-2.5-6.4-5.4-6.4c-0.8,0-1.8,0.1-2.9,0.2C42.6,142,42.5,146.4,42.5,150.7z"/>
		<path class="st0" d="M76.2,160.9l-2.8-4.5c-0.8,2.7-3.1,5-5.9,5c-3.2,0-6-1.7-6-7.5c0-3.7,0-7.1-0.1-10.7c1.6,0.2,3.3,0.2,4.9,0
			c0,9.6,0,7.3,0,11.3c0,3.4,0.9,4.6,2.4,4.6c2.2,0,3.7-2.5,3.7-6.4c0-7.9,0-6.2,0-9.4c1.6,0.2,3.3,0.2,4.9,0
			c-0.2,6-0.2,11.8,0.1,17.8L76.2,160.9L76.2,160.9z"/>
		<path class="st0" d="M92.6,157.2c0,2.8-1.6,4.1-4.4,4.1c-3.1,0-5-1.5-5-5.5c0-3.2,0.1-6.8-0.1-11.1c-0.6,0-1.2,0-1.8,0.1
			c0.1-0.5,0.1-1.1,0-1.6c0.8,0,1.5,0,2.2,0.1l1.2-5c1,0.2,2.3,0.2,3.4,0c-0.1,1.6-0.1,3.3-0.2,5l4.5-0.1c-0.1,0.5-0.1,1.1,0,1.6
			l-4.6-0.1c0,4.5,0.1,8.8,0.1,11.1s0.4,3.8,1.5,3.8c0.8,0,1.3-0.9,1.3-1.9c0-0.2-0.1-0.5-0.1-0.8C91.4,157.2,92,157.3,92.6,157.2z"
			/>
		<path class="st0" d="M111.7,150.1v10.8h-1.9l-2.3-5.4c-0.6,2-2.3,5.9-6.9,5.9c-3,0-5-1.6-5-4.3c0-4,4.7-6.7,11.5-7.1
			c0-3.1-0.2-6.3-3.1-6.3c-1.9,0-3.1,1.3-3.1,3c0,0.8,0.3,1.5,0.8,2.2l-0.6,0.3l-5.1-1.7c0.7-2.8,3.4-5,8-5
			C108.8,142.6,111.7,144.9,111.7,150.1z M107.1,151.3c-4.4,0.4-6.6,2.5-6.6,5.1c0,1.7,1,2.5,2.2,2.5
			C105.2,158.9,106.9,155.6,107.1,151.3z"/>
		<path class="st0" d="M115.3,158.8l1.8-4.4l0.4,0.1c0.5,3.1,2.4,5.4,5.6,5.4c2.1,0,3.1-1.1,3.1-2.2c0-1.8-2-3-4.1-4.1
			c-2.7-1.4-6-3.1-6-6.3c0-2.7,2.6-4.8,7.1-4.8c3.3,0,6.2,1.1,7.2,2l-2,3.8l-0.4-0.1c-0.8-2.3-1.6-4.3-4.8-4.3
			c-2.2,0-2.9,0.9-2.9,1.9c0,1.8,2.1,3,4.5,4.3c2.7,1.4,5.7,3,5.7,6s-2.9,5.2-7.6,5.2C119.7,161.3,116.9,160.1,115.3,158.8z"/>
		<path class="st0" d="M141.2,151.9c0-5.4,3.6-9.2,9-9.2c4.3,0,7.6,2.4,8.2,6.1l-5.1,0.8l-0.6-0.2c0.3-1,0.4-1.8,0.4-2.5
			c0-2-1.3-2.8-2.6-2.8c-2.7,0-4.3,2.8-4.3,8c0,5.2,1.6,8.2,4.3,8.2c1.2,0,2.7-0.7,2.7-3.2c0-0.7-0.1-1.5-0.4-2.5l0.6-0.3l5.1,0.8
			c-0.7,4-4.1,6.6-8.4,6.6C144.8,161.3,141.2,157.4,141.2,151.9z"/>
		<path class="st0" d="M161.5,151.8c0-5.4,3.6-9.2,9-9.2s9,3.8,9,9.2c0,5.6-3.6,9.5-9,9.5C165.1,161.3,161.5,157.4,161.5,151.8z
			 M174.4,151.6c0-5-1.5-7.6-3.9-7.6c-2.5,0-3.9,2.7-3.9,7.8c0,5.3,1.4,8.2,4,8.2C172.9,160,174.4,157.1,174.4,151.6z"/>
		<path class="st0" d="M183.8,155.7c0-6.5,0.1-15.1-0.1-19.9c1.6-0.3,3.2-0.3,4.9,0c0,4.8-0.1,13.4-0.1,19.9c0,2.5,0.4,3.8,1.6,3.8
			c0.8,0,1.3-0.7,1.3-1.8c0-0.3,0-0.6-0.1-1c0.5,0.2,1.2,0.4,1.8,0.3c0,2.6-1.6,4.3-4.3,4.3C186,161.4,183.7,160,183.8,155.7z"/>
		<path class="st0" d="M211.3,150.1v10.8h-1.9l-2.3-5.4c-0.6,2-2.3,5.9-6.9,5.9c-3,0-5-1.6-5-4.3c0-4,4.7-6.7,11.5-7.1
			c0-3.1-0.2-6.3-3.1-6.3c-1.9,0-3.1,1.3-3.1,3c0,0.8,0.3,1.5,0.8,2.2l-0.6,0.3l-5.1-1.7c0.6-2.8,3.4-5,8-5
			C208.4,142.6,211.3,144.9,211.3,150.1z M206.7,151.3c-4.4,0.4-6.6,2.5-6.6,5.1c0,1.7,1,2.5,2.2,2.5
			C204.8,158.9,206.5,155.6,206.7,151.3z"/>
		<path class="st0" d="M220.2,156.9l-2.5,4.1h-1.3c0.2-6.2,0.2-18.9,0-25c1.6-0.3,3.3-0.3,4.9,0c-0.1,2-0.2,6.3-0.3,10.6
			c1.2-2.5,3.2-3.8,5.6-3.8c3.8,0,7.3,3.3,7.3,9.2c0,5.9-3,9.5-7.6,9.5C223.6,161.3,221.5,159.8,220.2,156.9z M229.1,152
			c0-4.3-1.4-7-3.8-7c-2.4,0-3.9,2.5-3.9,7.1c0,4.5,1.5,7.2,3.9,7.2C227.6,159.2,229.1,156.5,229.1,152z"/>
		<path class="st0" d="M237,151.8c0-5.4,3.6-9.2,9-9.2s9,3.8,9,9.2c0,5.6-3.6,9.5-9,9.5C240.6,161.3,237,157.4,237,151.8z
			 M250,151.6c0-5-1.5-7.6-3.9-7.6c-2.5,0-3.9,2.7-3.9,7.8c0,5.3,1.4,8.2,4,8.2C248.5,160,250,157.1,250,151.6z"/>
		<path class="st0" d="M259.3,143.1h1.3l2.9,4.4c0.7-2.6,2.5-4.9,5.8-4.9c2.3,0,4.3,1.3,4.3,4.4c0,0.5,0,1.1-0.1,1.7l-4.1,1.3
			l-0.3-0.1c0.8-3.4,0-5.1-1.7-5.1c-2.1,0-3.1,2.6-3.1,6.6c0,2.9,0,6.2,0,9.4c-1.6-0.2-3.2-0.2-4.9,0
			C259.5,154.9,259.5,149.1,259.3,143.1z"/>
		<path class="st0" d="M291.8,150.1v10.8h-1.9l-2.3-5.4c-0.5,2-2.3,5.9-6.9,5.9c-3,0-5-1.6-5-4.3c0-4,4.7-6.7,11.5-7.1
			c0-3.1-0.2-6.3-3.1-6.3c-1.9,0-3.1,1.3-3.1,3c0,0.8,0.3,1.5,0.8,2.2l-0.5,0.3l-5.1-1.7c0.6-2.8,3.5-5,8-5
			C288.9,142.6,291.8,144.9,291.8,150.1z M287.2,151.3c-4.4,0.4-6.6,2.5-6.6,5.1c0,1.7,1,2.5,2.2,2.5
			C285.3,158.9,287,155.6,287.2,151.3z"/>
		<path class="st0" d="M306.8,157.2c0,2.8-1.6,4.1-4.4,4.1c-3.1,0-5-1.5-5-5.5c0-3.2,0.1-6.8-0.1-11.1c-0.6,0-1.2,0-1.8,0.1
			c0.1-0.5,0.1-1.1,0-1.6c0.8,0,1.5,0,2.2,0.1l1.2-5c1,0.2,2.3,0.2,3.5,0c-0.1,1.6-0.1,3.3-0.2,5l4.5-0.1c-0.1,0.5-0.1,1.1,0,1.6
			l-4.5-0.1c0,4.5,0.1,8.8,0.1,11.1s0.4,3.8,1.5,3.8c0.8,0,1.3-0.9,1.3-1.9c0-0.2-0.1-0.5-0.1-0.8
			C305.6,157.2,306.3,157.3,306.8,157.2z"/>
		<path class="st0" d="M310.8,138c0-1.5,1.1-2.6,2.7-2.6c1.5,0,2.7,1.2,2.7,2.6c0,1.4-1.2,2.5-2.7,2.5
			C311.9,140.5,310.8,139.3,310.8,138z M311,143.1c1.6,0.2,3.3,0.2,4.9,0c-0.1,5.9-0.1,11.8,0,17.8c-1.6-0.2-3.3-0.2-4.9,0
			C311.1,155,311.1,149.1,311,143.1z"/>
		<path class="st0" d="M336.9,143.1c-1.9,4.1-5,12.3-7,17.8c-1.1-0.2-2.7-0.2-3.9,0c-1.6-4.8-4.9-13.4-6.8-17.8
			c1.8,0.2,3.9,0.2,5.6,0c1.1,3.9,2.7,9.3,4.3,14.4c1.6-5,3.3-10.8,4.3-14.4C334.6,143.3,335.9,143.3,336.9,143.1z"/>
		<path class="st0" d="M354.8,150.1v10.8h-1.9l-2.3-5.4c-0.5,2-2.3,5.9-6.9,5.9c-3,0-5-1.6-5-4.3c0-4,4.7-6.7,11.5-7.1
			c0-3.1-0.2-6.3-3.1-6.3c-1.9,0-3.1,1.3-3.1,3c0,0.8,0.3,1.5,0.8,2.2l-0.5,0.3l-5.1-1.7c0.6-2.8,3.5-5,8-5
			C351.9,142.6,354.8,144.9,354.8,150.1z M350.2,151.3c-4.4,0.4-6.6,2.5-6.6,5.1c0,1.7,1,2.5,2.2,2.5
			C348.3,158.9,350,155.6,350.2,151.3z"/>
		<path class="st0" d="M358.4,158.8l1.8-4.4l0.4,0.1c0.5,3.1,2.4,5.4,5.6,5.4c2.1,0,3.1-1.1,3.1-2.2c0-1.8-2-3-4.1-4.1
			c-2.7-1.4-6-3.1-6-6.3c0-2.7,2.6-4.8,7.1-4.8c3.3,0,6.2,1.1,7.2,2l-2,3.8l-0.4-0.1c-0.8-2.3-1.5-4.3-4.8-4.3
			c-2.2,0-2.9,0.9-2.9,1.9c0,1.8,2.1,3,4.5,4.3c2.7,1.4,5.7,3,5.7,6s-2.9,5.2-7.6,5.2C362.8,161.3,360,160.1,358.4,158.8z"/>
		<path class="st0" d="M382.4,158.8c0,2.1-1.6,4.8-4.2,6.4l-0.7-0.9c0.8-0.6,2-1.8,2.6-2.9h-0.3c-1.5,0-2.6-1.1-2.6-2.7
			c0-1.5,1.1-2.6,2.7-2.6C381.2,156.1,382.4,157,382.4,158.8z"/>
		<path class="st0" d="M395.1,138c0-1.5,1.1-2.6,2.7-2.6c1.5,0,2.7,1.2,2.7,2.6c0,1.4-1.2,2.5-2.7,2.5
			C396.3,140.5,395.1,139.3,395.1,138z M395.3,143.1c1.6,0.2,3.3,0.2,4.9,0c-0.1,5.9-0.1,11.8,0,17.8c-1.6-0.2-3.3-0.2-4.9,0
			C395.5,155,395.5,149.1,395.3,143.1z"/>
		<path class="st0" d="M422.6,160.9c-1.6-0.2-3.3-0.2-4.9,0c0.1-3.7,0.1-7.2,0-10.5c-0.1-2.9-0.7-5.5-3.2-5.5
			c-2.2,0-3.7,2.5-3.7,7.1c0,2.4,0,5.6,0,8.9c-1.6-0.2-3.2-0.2-4.9,0c0.2-6,0.2-11.8,0-17.8h1.3l2.8,4.5c0.9-3.3,3-5,6.2-5
			c3.9,0,6.4,2.6,6.4,8.1C422.5,154,422.6,157.4,422.6,160.9z"/>
		<path class="st0" d="M444.4,160.9c-1.6-0.2-3.3-0.2-4.9,0c0.1-3.7,0.1-7.2,0-10.5c-0.1-2.9-0.7-5.5-3.2-5.5
			c-2.2,0-3.7,2.5-3.7,7.1c0,2.4,0,5.6,0,8.9c-1.6-0.2-3.2-0.2-4.9,0c0.2-6,0.2-11.8,0-17.8h1.3l2.8,4.5c0.9-3.3,3-5,6.2-5
			c3.9,0,6.4,2.6,6.4,8.1C444.3,154,444.4,157.4,444.4,160.9z"/>
		<path class="st0" d="M448.2,151.8c0-5.4,3.6-9.2,9-9.2c5.4,0,9,3.8,9,9.2c0,5.6-3.5,9.5-9,9.5
			C451.8,161.3,448.2,157.4,448.2,151.8z M461.2,151.6c0-5-1.5-7.6-3.9-7.6c-2.5,0-3.9,2.7-3.9,7.8c0,5.3,1.5,8.2,4,8.2
			C459.7,160,461.2,157.1,461.2,151.6z"/>
		<path class="st0" d="M485.5,143.1c-1.9,4.1-5,12.3-7,17.8c-1.1-0.2-2.7-0.2-3.9,0c-1.6-4.8-4.9-13.4-6.8-17.8
			c1.8,0.2,3.9,0.2,5.6,0c1.1,3.9,2.7,9.3,4.3,14.4c1.6-5,3.3-10.8,4.3-14.4C483.2,143.3,484.5,143.3,485.5,143.1z"/>
		<path class="st0" d="M503.4,150.1v10.8h-1.9l-2.3-5.4c-0.5,2-2.3,5.9-6.9,5.9c-3,0-5-1.6-5-4.3c0-4,4.7-6.7,11.5-7.1
			c0-3.1-0.2-6.3-3.1-6.3c-1.9,0-3.1,1.3-3.1,3c0,0.8,0.3,1.5,0.8,2.2l-0.5,0.3l-5.1-1.7c0.6-2.8,3.5-5,8-5
			C500.5,142.6,503.4,144.9,503.4,150.1z M498.8,151.3c-4.4,0.4-6.6,2.5-6.6,5.1c0,1.7,1,2.5,2.2,2.5
			C496.9,158.9,498.6,155.6,498.8,151.3z"/>
		<path class="st0" d="M507.1,151.9c0-5.4,3.5-9.2,9-9.2c4.3,0,7.5,2.4,8.2,6.1l-5.1,0.8l-0.6-0.2c0.3-1,0.4-1.8,0.4-2.5
			c0-2-1.3-2.8-2.5-2.8c-2.7,0-4.3,2.8-4.3,8c0,5.2,1.6,8.2,4.3,8.2c1.2,0,2.7-0.7,2.7-3.2c0-0.7-0.1-1.5-0.4-2.5l0.6-0.3l5.1,0.8
			c-0.7,4-4.1,6.6-8.4,6.6C510.7,161.3,507.1,157.4,507.1,151.9z"/>
		<path class="st0" d="M528.5,138c0-1.5,1.1-2.6,2.7-2.6c1.5,0,2.7,1.2,2.7,2.6c0,1.4-1.2,2.5-2.7,2.5
			C529.6,140.5,528.5,139.3,528.5,138z M528.7,143.1c1.6,0.2,3.3,0.2,4.9,0c-0.1,5.9-0.1,11.8,0,17.8c-1.6-0.2-3.3-0.2-4.9,0
			C528.8,155,528.8,149.1,528.7,143.1z"/>
		<path class="st0" d="M538,151.8c0-5.4,3.6-9.2,9-9.2c5.4,0,9,3.8,9,9.2c0,5.6-3.5,9.5-9,9.5C541.6,161.3,538,157.4,538,151.8z
			 M551,151.6c0-5-1.5-7.6-3.9-7.6c-2.5,0-3.9,2.7-3.9,7.8c0,5.3,1.5,8.2,4,8.2C549.5,160,551,157.1,551,151.6z M549.8,134
			c0.8,0.5,2.2,2,2.7,3.3l-7.6,4l-1.1-0.9L549.8,134z"/>
		<path class="st0" d="M577,160.9c-1.6-0.2-3.3-0.2-4.9,0c0.1-3.7,0.1-7.2,0-10.5c-0.1-2.9-0.7-5.5-3.2-5.5c-2.2,0-3.7,2.5-3.7,7.1
			c0,2.4,0,5.6,0,8.9c-1.6-0.2-3.2-0.2-4.9,0c0.2-6,0.2-11.8,0-17.8h1.3l2.8,4.5c0.9-3.3,3-5,6.2-5c3.9,0,6.4,2.6,6.4,8.1
			C576.9,154,577,157.4,577,160.9z"/>
		<path class="st0" d="M605.4,143.1c-2.2,5.7-4.4,11.3-6.8,17.7c-1.7,4.5-3.5,7.8-6.9,7.8c-2.3,0-4-1.2-4.5-2.8l2.9-3.2l0.2,0.1
			c0,2,0.8,3.1,2.1,3.1c2,0,3.1-1.9,3.9-4.5c-0.4,0-1.4-0.1-1.8-0.2c-1.8-5.6-4.8-13.6-6.7-17.9c1.8,0.2,3.8,0.2,5.6,0
			c1,3.6,2.9,9.4,4.4,13.8c1.4-4.1,3.4-10.5,4.2-13.8C603,143.3,604.3,143.3,605.4,143.1z"/>
		<path class="st0" d="M615.1,158.8l1.8-4.4l0.4,0.1c0.5,3.1,2.4,5.4,5.6,5.4c2.1,0,3.1-1.1,3.1-2.2c0-1.8-2-3-4.1-4.1
			c-2.7-1.4-6-3.1-6-6.3c0-2.7,2.6-4.8,7.1-4.8c3.3,0,6.2,1.1,7.2,2l-2,3.8l-0.4-0.1c-0.8-2.3-1.5-4.3-4.8-4.3
			c-2.2,0-2.9,0.9-2.9,1.9c0,1.8,2.1,3,4.5,4.3c2.7,1.4,5.7,3,5.7,6s-2.9,5.2-7.6,5.2C619.5,161.3,616.7,160.1,615.1,158.8z"/>
		<path class="st0" d="M633.2,151.8c0-5.4,3.6-9.2,9-9.2c5.4,0,9,3.8,9,9.2c0,5.6-3.5,9.5-9,9.5
			C636.8,161.3,633.2,157.4,633.2,151.8z M646.2,151.6c0-5-1.5-7.6-3.9-7.6c-2.5,0-3.9,2.7-3.9,7.8c0,5.3,1.5,8.2,4,8.2
			C644.7,160,646.2,157.1,646.2,151.6z"/>
		<path class="st0" d="M654.2,158.8l1.8-4.4l0.4,0.1c0.5,3.1,2.4,5.4,5.6,5.4c2.1,0,3.1-1.1,3.1-2.2c0-1.8-2-3-4.1-4.1
			c-2.7-1.4-6-3.1-6-6.3c0-2.7,2.6-4.8,7.1-4.8c3.3,0,6.2,1.1,7.2,2l-2,3.8l-0.4-0.1c-0.8-2.3-1.5-4.3-4.8-4.3
			c-2.2,0-2.9,0.9-2.9,1.9c0,1.8,2.1,3,4.5,4.3c2.7,1.4,5.7,3,5.7,6s-2.9,5.2-7.6,5.2C658.5,161.3,655.7,160.1,654.2,158.8z"/>
		<path class="st0" d="M683.6,157.2c0,2.8-1.6,4.1-4.4,4.1c-3.1,0-5-1.5-5-5.5c0-3.2,0.1-6.8-0.1-11.1c-0.6,0-1.2,0-1.8,0.1
			c0.1-0.5,0.1-1.1,0-1.6c0.8,0,1.5,0,2.2,0.1l1.2-5c1,0.2,2.3,0.2,3.5,0c-0.1,1.6-0.1,3.3-0.2,5l4.5-0.1c-0.1,0.5-0.1,1.1,0,1.6
			l-4.5-0.1c0,4.5,0.1,8.8,0.1,11.1s0.4,3.8,1.5,3.8c0.8,0,1.3-0.9,1.3-1.9c0-0.2-0.1-0.5-0.1-0.8
			C682.4,157.2,683,157.3,683.6,157.2z"/>
		<path class="st0" d="M703.6,155.8c-0.7,3.5-3.7,5.6-7.9,5.6c-5.8,0-9.3-4-9.3-9.6c0-5.5,3.5-9.2,9-9.2c5.4,0,8.2,3.3,8.1,9
			l-0.7,0.5h-11.3v0.3c0,4.9,1.1,7.9,4.3,7.9c1.5,0,2.9-0.8,2.9-3.3c0-0.5,0-0.9-0.1-1.5l0.6-0.3L703.6,155.8z M691.5,150.6h6.8
			c0.2-0.7,0.3-1.8,0.3-2.9c0-2.4-0.9-3.8-3-3.8C693.3,143.9,691.8,146.1,691.5,150.6z"/>
		<path class="st0" d="M724.5,160.9c-1.6-0.2-3.3-0.2-4.9,0c0.1-3.7,0.1-7.2,0-10.5c-0.1-2.9-0.7-5.5-3.2-5.5
			c-2.2,0-3.7,2.5-3.7,7.1c0,2.4,0,5.6,0,8.9c-1.6-0.2-3.2-0.2-4.9,0c0.2-6,0.2-11.8,0-17.8h1.3l2.8,4.5c0.9-3.3,3-5,6.2-5
			c3.9,0,6.4,2.6,6.4,8.1C724.4,154,724.5,157.4,724.5,160.9z"/>
		<path class="st0" d="M729.5,138c0-1.5,1.1-2.6,2.7-2.6c1.5,0,2.7,1.2,2.7,2.6c0,1.4-1.2,2.5-2.7,2.5
			C730.6,140.5,729.5,139.3,729.5,138z M729.7,143.1c1.6,0.2,3.3,0.2,4.9,0c-0.1,5.9-0.1,11.8,0,17.8c-1.6-0.2-3.3-0.2-4.9,0
			C729.8,155,729.8,149.1,729.7,143.1z"/>
		<path class="st0" d="M744.2,156.9l-2.5,4.1h-1.3c0.2-6.2,0.2-18.9,0-25c1.6-0.3,3.3-0.3,4.9,0c-0.1,2-0.2,6.3-0.3,10.6
			c1.2-2.5,3.2-3.8,5.7-3.8c3.8,0,7.3,3.3,7.3,9.2c0,5.9-3,9.5-7.5,9.5C747.5,161.3,745.5,159.8,744.2,156.9z M753,152
			c0-4.3-1.5-7-3.8-7c-2.4,0-3.9,2.5-3.9,7.1c0,4.5,1.5,7.2,3.9,7.2C751.6,159.2,753,156.5,753,152z"/>
		<path class="st0" d="M762.1,138c0-1.5,1.1-2.6,2.7-2.6c1.5,0,2.7,1.2,2.7,2.6c0,1.4-1.2,2.5-2.7,2.5
			C763.3,140.5,762.1,139.3,762.1,138z M762.3,143.1c1.6,0.2,3.3,0.2,4.9,0c-0.1,5.9-0.1,11.8,0,17.8c-1.6-0.2-3.3-0.2-4.9,0
			C762.5,155,762.5,149.1,762.3,143.1z"/>
		<path class="st0" d="M772.9,155.7c0-6.5,0.1-15.1-0.1-19.9c1.6-0.3,3.2-0.3,4.9,0c0,4.8-0.1,13.4-0.1,19.9c0,2.5,0.5,3.8,1.5,3.8
			c0.8,0,1.3-0.7,1.3-1.8c0-0.3,0-0.6-0.1-1c0.5,0.2,1.2,0.4,1.8,0.3c0,2.6-1.7,4.3-4.3,4.3C775.1,161.4,772.8,160,772.9,155.7z"/>
		<path class="st0" d="M785.3,138c0-1.5,1.1-2.6,2.7-2.6c1.5,0,2.7,1.2,2.7,2.6c0,1.4-1.2,2.5-2.7,2.5
			C786.4,140.5,785.3,139.3,785.3,138z M785.5,143.1c1.6,0.2,3.3,0.2,4.9,0c-0.1,5.9-0.1,11.8,0,17.8c-1.6-0.2-3.3-0.2-4.9,0
			C785.6,155,785.6,149.1,785.5,143.1z"/>
		<path class="st0" d="M794.8,152.1c0-5.9,3-9.5,7.5-9.5c2.2,0,4.1,1,5.2,2.7c0-3.1-0.1-6.4-0.3-9.4c1.6-0.3,3.3-0.3,4.9,0
			c-0.2,6.2-0.2,18.8,0,25h-1.3l-2.8-4.1c-1.1,3-3.3,4.6-6,4.6C797.8,161.5,794.8,158.1,794.8,152.1z M807.4,151.9
			c0-4.4-1.5-7.2-3.9-7.2c-2.3,0-3.8,2.7-3.8,7.2s1.4,7.2,3.8,7.2C805.9,159.1,807.4,156.6,807.4,151.9z"/>
		<path class="st0" d="M832.9,150.1v10.8H831l-2.3-5.4c-0.5,2-2.3,5.9-6.9,5.9c-3,0-5-1.6-5-4.3c0-4,4.7-6.7,11.5-7.1
			c0-3.1-0.2-6.3-3.1-6.3c-1.9,0-3.1,1.3-3.1,3c0,0.8,0.3,1.5,0.8,2.2l-0.5,0.3l-5.1-1.7c0.7-2.8,3.5-5,8-5
			C830,142.6,832.9,144.9,832.9,150.1z M828.3,151.3c-4.4,0.4-6.6,2.5-6.6,5.1c0,1.7,1,2.5,2.2,2.5
			C826.4,158.9,828.1,155.6,828.3,151.3z"/>
		<path class="st0" d="M836.6,152.1c0-5.9,3-9.5,7.5-9.5c2.2,0,4.1,1,5.2,2.7c0-3.1-0.1-6.4-0.3-9.4c1.6-0.3,3.3-0.3,4.9,0
			c-0.2,6.2-0.2,18.8,0,25h-1.3l-2.8-4.1c-1.1,3-3.3,4.6-6,4.6C839.6,161.5,836.6,158.1,836.6,152.1z M849.2,151.9
			c0-4.4-1.5-7.2-3.9-7.2c-2.3,0-3.8,2.7-3.8,7.2s1.4,7.2,3.8,7.2C847.7,159.1,849.2,156.6,849.2,151.9z"/>
	</g>
</g>
</svg>
