<svg xmlns="http://www.w3.org/2000/svg" width="191.969" height="47.923" viewBox="0 0 191.969 47.923">
  <g id="Grupo_228" data-name="Grupo 228" transform="translate(-86.53 12.722)">
    <g id="Grupo_227" data-name="Grupo 227" transform="translate(86.53 4.597)">
      <path id="Trazado_829" data-name="Trazado 829" d="M173.527-42.439H173.5c-.114,0-.228.029-.37.029-.629,0-1.115-.342-1.115-1.714v-3.885c0-3.913.027-8.541.054-10.94v-.115a2.077,2.077,0,0,0-2.285-2.37c-.257,0-.657.028-.943.028a.848.848,0,0,0-.884.859.734.734,0,0,0,.8.742h.056a3.528,3.528,0,0,1,.458-.029c1.142,0,1.142.486,1.144,2.429,0,1.658-.028,3.685-.028,5.142,0,.371-.028.514-.086.514s-.143-.143-.286-.343a5.743,5.743,0,0,0-4.514-2.056,6.4,6.4,0,0,0-6.482,6.772c0,4.143,2.772,6.827,6.486,6.826a5.947,5.947,0,0,0,4.77-2.4c.057-.057.085-.087.115-.087.086,0,.114.114.143.286a2.34,2.34,0,0,0,2.6,2.027c.371,0,1.142-.084,1.142-.884A.759.759,0,0,0,173.527-42.439Zm-7.97.317c-2.856,0-4.856-2-4.858-5.254,0-3.286,1.971-5.285,4.856-5.286,2.713,0,4.827,2.084,4.828,5.284C170.384-44.209,168.242-42.123,165.556-42.123Z" transform="translate(-106.692 66.285)" fill="#fff"/>
      <path id="Trazado_830" data-name="Trazado 830" d="M184.489-43.9c-1.142-.4-1.343-1.085-1.343-3.172,0-1.085.056-2.57.142-3.514a7.554,7.554,0,0,0,.029-.8c0-3.2-1.8-4.37-4.459-4.37-2.456,0-4.855,1.229-4.855,2.314a.775.775,0,0,0,.8.772.8.8,0,0,0,.6-.286,4.5,4.5,0,0,1,3.343-1.372c2.314,0,2.97,1.228,2.97,2.8,0,.143-.028.314-.028.457,0,.2-.114.286-.457.343a45.815,45.815,0,0,0-5.284,1.172c-2.115.657-3.057,2.115-3.057,3.543,0,1.972,1.745,3.942,4.629,3.942a5.282,5.282,0,0,0,4.342-2.2.151.151,0,0,1,.114-.086c.057,0,.086.057.115.143a2.429,2.429,0,0,0,2.115,1.826.772.772,0,0,0,.771-.8A.725.725,0,0,0,184.489-43.9Zm-2.829-4.684c0,4.4-2.712,5-4.17,5-1.913,0-3.057-1.2-3.057-2.4,0-2,2.371-2.57,6.855-3.286h.087c.2,0,.285.086.285.315Z" transform="translate(-102.859 67.855)" fill="#fff"/>
      <path id="Trazado_831" data-name="Trazado 831" d="M191.259-42.834h-.115a7.842,7.842,0,0,1-.8.057c-2.228,0-2.286-1.514-2.286-3.741,0-2.115.084-5.057.084-6.143,0-.342,0-.4.457-.4h2.514a.743.743,0,0,0,.8-.772.734.734,0,0,0-.8-.742h-2.544c-.37,0-.428,0-.429-.314,0,0,.057-2.286.057-3.114a.81.81,0,0,0-.828-.886.809.809,0,0,0-.828.83v.713c0,1-.029,2.371-.029,2.486,0,.257-.055.285-.313.285h-1.657a.736.736,0,0,0-.8.744.741.741,0,0,0,.8.771h1.685c.2,0,.286.028.286.314v.457c0,1.4-.055,4.884-.055,6.712,0,1.258,0,4.371,3.658,4.371,1.142,0,1.828-.145,1.828-.887A.709.709,0,0,0,191.259-42.834Z" transform="translate(-99.86 66.989)" fill="#fff"/>
      <path id="Trazado_832" data-name="Trazado 832" d="M203.915-43.9c-1.142-.4-1.343-1.085-1.343-3.17,0-1.086.056-2.57.143-3.514a7.9,7.9,0,0,0,.028-.8c0-3.2-1.8-4.37-4.459-4.37-2.456,0-4.855,1.229-4.855,2.315a.774.774,0,0,0,.8.771.792.792,0,0,0,.6-.286,4.507,4.507,0,0,1,3.343-1.372c2.314,0,2.97,1.229,2.97,2.8,0,.143-.027.315-.027.458,0,.2-.115.286-.457.343a45.616,45.616,0,0,0-5.285,1.172c-2.114.657-3.057,2.114-3.055,3.542,0,1.972,1.745,3.942,4.628,3.942a5.279,5.279,0,0,0,4.342-2.2.155.155,0,0,1,.115-.086c.056,0,.084.057.114.143a2.43,2.43,0,0,0,2.115,1.828.772.772,0,0,0,.771-.8A.726.726,0,0,0,203.915-43.9Zm-2.828-4.684c0,4.4-2.713,5-4.171,5-1.913,0-3.057-1.2-3.057-2.4,0-2,2.371-2.572,6.855-3.288h.087c.2,0,.286.087.286.315Z" transform="translate(-97.491 67.854)" fill="#fff"/>
      <path id="Trazado_833" data-name="Trazado 833" d="M210.384-49.274c-.886-.457-2.256-1.027-3.057-1.4a2.2,2.2,0,0,1-1.4-1.884c0-.943.828-1.83,2.314-1.83.171,0,2.713,0,2.713,2.285a.734.734,0,0,0,.8.743.7.7,0,0,0,.715-.685V-52.1c-.029-.656-.029-1.086-.029-1.486,0-.429,0-.828.029-1.428v-.028a.668.668,0,0,0-.716-.685.642.642,0,0,0-.656.457c-.028.086,0,.342-.143.342a.214.214,0,0,1-.172-.056,4.594,4.594,0,0,0-2.513-.771c-2.544,0-3.885,1.63-3.885,3.285A3.454,3.454,0,0,0,206.7-49.3c3.313,1.371,4.572,2.055,4.572,3.57,0,1.371-1.4,2.2-2.856,2.2-1.63,0-3.058-.942-3.058-1.884,0-.2.057-.342.057-.544a.734.734,0,0,0-.771-.771.75.75,0,0,0-.8.744v.057c.028.684.056,1.113.056,1.542s-.028.856-.056,1.486v.057a.688.688,0,0,0,.743.684c.342,0,.685-.086.685-.8,0-.086.028-.143.086-.143a.363.363,0,0,1,.2.115,4.487,4.487,0,0,0,2.858.941c3.256,0,4.512-2.115,4.512-3.685A4.091,4.091,0,0,0,210.384-49.274Z" transform="translate(-94.306 67.853)" fill="#fff"/>
      <path id="Trazado_834" data-name="Trazado 834" d="M226.081-42.424c-.171,0-.313.029-.428.029a1.058,1.058,0,0,1-.828-.342c-5.172-4.74-5.914-5.427-5.914-5.626,0-.087.057-.172.228-.286,1.4-.915,3.6-2.4,5.284-3.543a1.362,1.362,0,0,1,.713-.258c.4,0,.172.028.572.028h.028a.752.752,0,0,0,.8-.743.7.7,0,0,0-.828-.743c-.743.028-1.428.029-2.056.029-.657,0-1.287,0-2-.028h-.057a.726.726,0,0,0-.771.743c0,.685.685.685,1.2.685.144,0,.2.028.2.086,0,.028-.029.086-.115.143-4.513,3.115-4.627,3.143-4.94,3.143a.429.429,0,0,1-.486-.457s.055-6.056.055-9.742c0-.628-.2-2.142-2.544-2.14-1,0-1.512.086-1.512.828a.778.778,0,0,0,.8.8h.656c.715.029.943.343.943,1.142,0,1.543.029,3.457.031,5.457,0,3.484-.027,7.34-.083,10.34a.45.45,0,0,1-.485.485c-.458,0-.516-.028-.858-.028h-.028a.786.786,0,0,0-.828.8.739.739,0,0,0,.858.743c.656-.029,1.343-.057,2.056-.057.743,0,1.486.027,2.228.056H218a.765.765,0,0,0,.827-.772.765.765,0,0,0-.827-.771h-.029a7.345,7.345,0,0,1-.8.028.436.436,0,0,1-.485-.485c-.029-1.371-.029-2.286-.029-2.971,0-1.486.028-1.741.457-1.741a1.019,1.019,0,0,1,.856.342c.886.914,3.229,3.083,4.744,4.568a.224.224,0,0,1,.056.115c0,.029,0,.2-.743.2a.669.669,0,0,0-.77.744.726.726,0,0,0,.771.742h.057c.657-.028,1.285-.056,1.913-.056s1.315.027,2.057.055h.028a.763.763,0,0,0,.8-.8A.708.708,0,0,0,226.081-42.424Z" transform="translate(-91.865 66.282)" fill="#fff"/>
      <path id="Trazado_835" data-name="Trazado 835" d="M236.705-45.744a.816.816,0,0,0-.572.257,5.111,5.111,0,0,1-4.142,1.886,4.666,4.666,0,0,1-4.8-5.026c0-.4.057-.513.343-.514.628,0,3.055.028,5.2.028,1.057,0,2.028,0,2.685-.029,1.458-.057,2.086-.858,2.086-1.914a5.324,5.324,0,0,0-5.63-4.684c-3.371,0-6.37,2.744-6.369,6.915a6.384,6.384,0,0,0,6.458,6.74c3.6,0,5.6-2.174,5.6-2.83A.874.874,0,0,0,236.705-45.744Zm-4.8-8.569c2.914,0,3.914,2.142,3.914,2.97,0,.457-.257.772-.942.8-.8.028-2.4.028-3.885.028-3.313,0-3.571,0-3.571-.285C227.419-51.855,229.161-54.313,231.9-54.313Z" transform="translate(-88.321 67.858)" fill="#fff"/>
      <path id="Trazado_836" data-name="Trazado 836" d="M244.144-42.845h-.115c-.285.028-.542.056-.8.056-2.228,0-2.286-1.514-2.287-3.742,0-2.114.086-5.055.086-6.141,0-.342,0-.4.457-.4H244a.743.743,0,0,0,.8-.772.736.736,0,0,0-.8-.743h-2.541c-.371,0-.429,0-.43-.314,0,0,.057-2.285.057-3.114a.809.809,0,0,0-.83-.883.809.809,0,0,0-.828.827v.715c0,1-.028,2.37-.028,2.485,0,.257-.056.285-.313.285h-1.657a.736.736,0,0,0-.8.743.742.742,0,0,0,.8.772h1.685c.2,0,.286.028.286.314v.457c0,1.4-.056,4.886-.056,6.713,0,1.257,0,4.371,3.658,4.37,1.144,0,1.829-.143,1.829-.886A.707.707,0,0,0,244.144-42.845Z" transform="translate(-85.248 66.986)" fill="#fff"/>
      <path id="Trazado_837" data-name="Trazado 837" d="M256.207-45.723a.9.9,0,0,0-.743.428,4.5,4.5,0,0,1-3.657,1.658c-3.285,0-4.97-2.712-4.971-5.312,0-3.17,2.17-5.4,4.97-5.4a3.753,3.753,0,0,1,2.914,1.17c.342.4.257.743.285,1.343a.757.757,0,0,0,.8.685.736.736,0,0,0,.827-.715v-.057c-.028-.656-.028-1.113-.028-1.542,0-.457,0-.884.028-1.486v-.057a.738.738,0,0,0-.83-.713c-.314,0-.655.142-.684.486-.028.142-.057.313-.143.313-.057,0-.085-.028-.143-.056a6.581,6.581,0,0,0-3.229-.856c-3.6,0-6.426,3-6.426,7a6.494,6.494,0,0,0,6.716,6.74c3.085,0,5.226-1.914,5.226-2.744A.915.915,0,0,0,256.207-45.723Z" transform="translate(-82.886 67.832)" fill="#fff"/>
      <path id="Trazado_838" data-name="Trazado 838" d="M270.528-42.426H270.5c-.4,0-.371.028-.8.028-.343,0-.485-.2-.485-.514,0-2.256-.031-5.542-.059-6.741a4.524,4.524,0,0,0-4.772-4.569,5.35,5.35,0,0,0-4.227,1.944c-.057.057-.085.086-.114.086s-.057-.057-.057-.143c0-.4.027-2.971.027-5.284q0-.858,0-1.629a1.993,1.993,0,0,0-1.941-2.172,6.442,6.442,0,0,0-.715-.056c-1.228,0-1.456.371-1.456.858a.779.779,0,0,0,.8.8h.029a5.644,5.644,0,0,1,.628-.028c.743.028.971.429.971,1.17,0,1.714.029,4.028.031,6.457,0,3.427-.027,7.026-.055,9.341a.43.43,0,0,1-.458.486c-.457,0-.542-.029-.914-.029H256.9a.785.785,0,0,0-.827.8.738.738,0,0,0,.856.742c.657-.028,1.371-.057,2.085-.059s1.486.029,2.228.057h.028a.781.781,0,0,0,.828-.771.775.775,0,0,0-.858-.772,7.014,7.014,0,0,1-.8.029.437.437,0,0,1-.486-.486c0-1.341-.028-2.6-.029-3.655,0-1.029.029-1.886.029-2.429a4.171,4.171,0,0,1,4.254-3.742A3.2,3.2,0,0,1,267.5-49.34c.028.544.057,1.886.057,3.372,0,1.057-.028,2.142-.028,3.085a.443.443,0,0,1-.457.485c-.457,0-.486-.027-.858-.027h-.028a.786.786,0,0,0-.827.8.739.739,0,0,0,.856.744c.659-.031,1.343-.059,2.057-.059.743,0,1.486.028,2.228.057h.028a.767.767,0,0,0,.828-.772A.766.766,0,0,0,270.528-42.426Z" transform="translate(-79.924 66.273)" fill="#fff"/>
      <path id="Trazado_839" data-name="Trazado 839" d="M149.85-47.945V-62.379a2.86,2.86,0,0,0-2.856-2.856H120.875a2.859,2.859,0,0,0-2.856,2.856v19a2.859,2.859,0,0,0,2.856,2.856h12.334l-4.653,4.683a.711.711,0,0,0,0,1,.712.712,0,0,0,.5.205.709.709,0,0,0,.5-.209l4.373-4.4,4.371,4.4a.711.711,0,0,0,.5.209.712.712,0,0,0,.5-.205.711.711,0,0,0,0-1l-4.651-4.681h12.333a2.86,2.86,0,0,0,2.856-2.856v-2.855l8.238,5.589a.7.7,0,0,0,.4.123.711.711,0,0,0,.587-.31.71.71,0,0,0-.189-.985Zm-1.418-.962L143.587-52.2a.71.71,0,0,0-.985.189.708.708,0,0,0,.189.984l5.641,3.828v3.816a1.441,1.441,0,0,1-1.438,1.44H120.875a1.441,1.441,0,0,1-1.44-1.44v-19a1.442,1.442,0,0,1,1.44-1.44h26.118a1.442,1.442,0,0,1,1.438,1.44Z" transform="translate(-118.019 65.235)" fill="#fff"/>
    </g>
    <g id="Grupo_226" data-name="Grupo 226" transform="translate(182.246 -12.722)">
      <path id="Trazado_840" data-name="Trazado 840" d="M207.438-74.356a4.194,4.194,0,0,0,.387-1.88,3.483,3.483,0,0,0-1.448-3.093,7.359,7.359,0,0,0-4.163-.989q-.809,0-1.771.064a11.138,11.138,0,0,0-1.754.242v12.283h2.266v-4.388h1.133a11.311,11.311,0,0,0,2.428-.234,5.216,5.216,0,0,0,1.8-.728A3.244,3.244,0,0,0,207.438-74.356Zm-2.868-.162a5.572,5.572,0,0,1-2.518.458h-1.1V-78.3c.371-.036.845-.054,1.421-.054a7,7,0,0,1,1.213.1,3.09,3.09,0,0,1,.981.332,1.693,1.693,0,0,1,.647.647,2.058,2.058,0,0,1,.234,1.025A1.776,1.776,0,0,1,204.57-74.517Z" transform="translate(-198.689 81.685)" fill="#fff"/>
      <path id="Trazado_841" data-name="Trazado 841" d="M213.868-76.837a4.07,4.07,0,0,0-1.429-1,4.684,4.684,0,0,0-1.826-.35,4.6,4.6,0,0,0-1.816.35,4.16,4.16,0,0,0-1.429,1,4.564,4.564,0,0,0-.937,1.556,5.858,5.858,0,0,0-.332,2.023,5.932,5.932,0,0,0,.332,2.032,4.648,4.648,0,0,0,.927,1.566,4.149,4.149,0,0,0,1.421,1.006,4.559,4.559,0,0,0,1.834.36,4.62,4.62,0,0,0,1.843-.36,4.123,4.123,0,0,0,1.43-1.006,4.517,4.517,0,0,0,.917-1.566,6.067,6.067,0,0,0,.324-2.032,5.825,5.825,0,0,0-.333-2.023A4.629,4.629,0,0,0,213.868-76.837Zm-1.574,5.827a1.959,1.959,0,0,1-1.681.827,1.963,1.963,0,0,1-1.682-.827,3.746,3.746,0,0,1-.6-2.248,3.67,3.67,0,0,1,.6-2.22,1.97,1.97,0,0,1,1.682-.819,1.966,1.966,0,0,1,1.681.819,3.661,3.661,0,0,1,.6,2.22A3.737,3.737,0,0,1,212.294-71.01Z" transform="translate(-195.848 82.502)" fill="#fff"/>
      <path id="Trazado_842" data-name="Trazado 842" d="M214.867-72.766q.4,1.206.793,2.266t.757,1.888H218.2q.465-1.33.942-2.833t.89-3.084q.413,1.583.908,3.084t.962,2.833h1.768q.378-.826.775-1.888t.793-2.266q.4-1.2.793-2.536t.775-2.716H224.56q-.164.755-.379,1.628t-.462,1.78q-.243.909-.5,1.772c-.169.575-.332,1.1-.488,1.581q-.27-.826-.528-1.709t-.484-1.762q-.226-.882-.422-1.717t-.36-1.574h-1.673q-.162.739-.369,1.574t-.441,1.717q-.234.882-.5,1.762t-.533,1.709c-.167-.48-.336-1.006-.506-1.581s-.331-1.166-.488-1.772-.306-1.2-.451-1.78-.271-1.125-.379-1.628h-2.3q.378,1.384.775,2.716T214.867-72.766Z" transform="translate(-193.087 82.567)" fill="#fff"/>
      <path id="Trazado_843" data-name="Trazado 843" d="M228.708-68.313a8.323,8.323,0,0,0,.953-.054c.311-.036.6-.08.873-.136a7.258,7.258,0,0,0,.718-.178,3.43,3.43,0,0,0,.5-.19l-.288-1.78a5.91,5.91,0,0,1-1.035.306,6.707,6.707,0,0,1-1.447.144,3.045,3.045,0,0,1-2.06-.62,2.482,2.482,0,0,1-.8-1.754h6.2c.011-.119.021-.253.028-.4s.008-.285.008-.405a5.206,5.206,0,0,0-1.089-3.6,3.867,3.867,0,0,0-3.03-1.206,4.332,4.332,0,0,0-1.619.315,4.053,4.053,0,0,0-1.4.935,4.577,4.577,0,0,0-.981,1.555,5.9,5.9,0,0,0-.368,2.176,6.308,6.308,0,0,0,.288,1.952,4.2,4.2,0,0,0,.881,1.547,4.029,4.029,0,0,0,1.511,1.025A5.786,5.786,0,0,0,228.708-68.313Zm-2.374-6.672a2.245,2.245,0,0,1,.4-.7,2,2,0,0,1,.639-.494,1.946,1.946,0,0,1,.881-.189,1.872,1.872,0,0,1,.836.172,1.738,1.738,0,0,1,.593.468,2.043,2.043,0,0,1,.369.7,2.89,2.89,0,0,1,.126.854h-4.046A3.841,3.841,0,0,1,226.334-74.985Z" transform="translate(-189.034 82.502)" fill="#fff"/>
      <path id="Trazado_844" data-name="Trazado 844" d="M236.418-78.06c-.192-.03-.385-.054-.575-.073s-.36-.026-.5-.026a9.759,9.759,0,0,0-2.094.208,11.968,11.968,0,0,0-1.574.44v8.956h2.176v-7.535a4.957,4.957,0,0,1,.566-.126,4.467,4.467,0,0,1,.765-.072,5.451,5.451,0,0,1,1.105.1,7.185,7.185,0,0,1,.747.188l.378-1.834c-.108-.036-.252-.073-.432-.116S236.609-78.03,236.418-78.06Z" transform="translate(-186.043 82.512)" fill="#fff"/>
      <path id="Trazado_845" data-name="Trazado 845" d="M237.7-69.706a4.028,4.028,0,0,0,1.511,1.025,5.786,5.786,0,0,0,2.158.368,8.32,8.32,0,0,0,.953-.054c.311-.036.6-.08.873-.136a7.257,7.257,0,0,0,.718-.178,3.426,3.426,0,0,0,.5-.19l-.288-1.78a5.959,5.959,0,0,1-1.033.306,6.729,6.729,0,0,1-1.448.144,3.044,3.044,0,0,1-2.06-.62,2.482,2.482,0,0,1-.8-1.754h6.2c.011-.119.021-.253.026-.4s.01-.285.01-.405a5.205,5.205,0,0,0-1.089-3.6,3.867,3.867,0,0,0-3.03-1.206,4.332,4.332,0,0,0-1.619.315,4.039,4.039,0,0,0-1.4.935,4.577,4.577,0,0,0-.981,1.555,5.932,5.932,0,0,0-.368,2.176,6.31,6.31,0,0,0,.288,1.952A4.2,4.2,0,0,0,237.7-69.706ZM239-74.985a2.246,2.246,0,0,1,.4-.7,2,2,0,0,1,.639-.494,1.945,1.945,0,0,1,.881-.189,1.887,1.887,0,0,1,.837.172,1.734,1.734,0,0,1,.592.468,2.043,2.043,0,0,1,.369.7,2.888,2.888,0,0,1,.126.854H238.8A3.76,3.76,0,0,1,239-74.985Z" transform="translate(-184.179 82.502)" fill="#fff"/>
      <path id="Trazado_846" data-name="Trazado 846" d="M248.739-67.116a12.618,12.618,0,0,0,2.059-.162,12.711,12.711,0,0,0,1.628-.36V-81.306l-2.176.36v4.514a5.449,5.449,0,0,0-.9-.36,4.071,4.071,0,0,0-1.2-.162,4.264,4.264,0,0,0-1.78.351,3.642,3.642,0,0,0-1.313,1,4.447,4.447,0,0,0-.819,1.555,6.9,6.9,0,0,0-.278,2.024,5.92,5.92,0,0,0,.332,2.042,4.321,4.321,0,0,0,.953,1.547,4.151,4.151,0,0,0,1.5.979A5.477,5.477,0,0,0,248.739-67.116Zm-2.006-7.158a1.949,1.949,0,0,1,1.736-.809,2.992,2.992,0,0,1,1.015.17,3.437,3.437,0,0,1,.765.369v5.4c-.156.036-.357.069-.6.1a7.7,7.7,0,0,1-.89.044,2.327,2.327,0,0,1-1.888-.818,3.411,3.411,0,0,1-.683-2.258A3.864,3.864,0,0,1,246.733-74.274Z" transform="translate(-181.333 81.306)" fill="#fff"/>
      <path id="Trazado_847" data-name="Trazado 847" d="M258.795-67.116a5.484,5.484,0,0,0,2-.342,4.1,4.1,0,0,0,1.5-.989A4.392,4.392,0,0,0,263.247-70a5.913,5.913,0,0,0,.332-2.042,6.833,6.833,0,0,0-.278-2.006,4.607,4.607,0,0,0-.8-1.555,3.476,3.476,0,0,0-1.3-1,4.287,4.287,0,0,0-1.771-.351,4.28,4.28,0,0,0-1.215.162,5.113,5.113,0,0,0-.925.36v-4.874l-2.177.36v13.308a12.765,12.765,0,0,0,1.628.36A12.617,12.617,0,0,0,258.795-67.116Zm-1.509-7.445a3.083,3.083,0,0,1,.764-.358,3.1,3.1,0,0,1,1.017-.163,1.946,1.946,0,0,1,1.735.809,3.863,3.863,0,0,1,.549,2.194,3.412,3.412,0,0,1-.685,2.258,2.326,2.326,0,0,1-1.887.818,7.712,7.712,0,0,1-.891-.044,6,6,0,0,1-.6-.1Z" transform="translate(-177.057 81.306)" fill="#fff"/>
      <path id="Trazado_848" data-name="Trazado 848" d="M263.378-67.083a3.553,3.553,0,0,1-1.284-.252L261.7-65.59a3.306,3.306,0,0,0,.747.234,4.679,4.679,0,0,0,1,.108,4.72,4.72,0,0,0,1.332-.17,3.03,3.03,0,0,0,1.044-.549,4.162,4.162,0,0,0,.847-.953,9.753,9.753,0,0,0,.737-1.385,68.62,68.62,0,0,0,3.376-9.712h-2.248q-.413,1.691-.914,3.5t-1.074,3.409q-.342-.774-.686-1.674t-.65-1.807q-.305-.909-.569-1.79t-.441-1.637h-2.32a47.488,47.488,0,0,0,1.688,4.964q.948,2.339,1.978,4.316a3.314,3.314,0,0,1-.84,1.251A2,2,0,0,1,263.378-67.083Z" transform="translate(-174.53 82.567)" fill="#fff"/>
    </g>
  </g>
</svg>
