<svg xmlns="http://www.w3.org/2000/svg" xmlns:xlink="http://www.w3.org/1999/xlink" width="125.449" height="61.56" viewBox="0 0 125.449 61.56">
  <defs>
    <clipPath id="clip-path">
      <rect id="Rect치ngulo_1230" data-name="Rect치ngulo 1230" width="125.449" height="61.56" transform="translate(0 0)" fill="none"/>
    </clipPath>
  </defs>
  <g id="Grupo_1109" data-name="Grupo 1109" transform="translate(0 0)">
    <g id="Grupo_1108" data-name="Grupo 1108" clip-path="url(#clip-path)">
      <path id="Trazado_905" data-name="Trazado 905" d="M66,41.211a6.737,6.737,0,0,0,1.091-3.932A6.738,6.738,0,0,0,64.5,31.454q-2.592-1.895-7.845-1.9H48.036V42.626l-4.918-13.1h-10.8l-2.279,6.41a7.965,7.965,0,0,0-2.666-3.717Q23.8,29.56,17.906,29.559H10.472V54.4h7.934a17.6,17.6,0,0,0,5.339-.74l-.263.74h6.547l7.678-20.682L48.6,61.56h6.545L52.457,54.4h2.191v-9.15h1.823l4.86,9.15h7.363L62.511,44.034A9.447,9.447,0,0,0,66,41.211m-47.2,8.47H17.084v-15.4h1.68a6.047,6.047,0,0,1,2.948.643A4.169,4.169,0,0,1,23.5,37.226a13.733,13.733,0,0,1,.625,4.664q0,4.361-1.3,6.075A4.728,4.728,0,0,1,18.8,49.681m38.065-8.935H54.648V34.17h1.859a4.524,4.524,0,0,1,2.841.75,2.83,2.83,0,0,1,.947,2.359q0,3.467-3.431,3.467" fill="#f4f1ec"/>
      <path id="Trazado_906" data-name="Trazado 906" d="M67.8,34.6H74.02V54.4h6.611V34.6h5.862l.679-5.039H67.8Z" fill="#f4f1ec"/>
      <path id="Trazado_907" data-name="Trazado 907" d="M104.112,34.241l.679-4.682H89.03V54.4h15.654V49.716H95.641V44.069h7.4V39.531h-7.4v-5.29Z" fill="#f4f1ec"/>
      <path id="Trazado_908" data-name="Trazado 908" d="M123.68,41.979a13.255,13.255,0,0,0-5.594-3.056,28.281,28.281,0,0,1-2.93-1.072,3.83,3.83,0,0,1-1.322-.893,1.76,1.76,0,0,1-.394-1.18,1.8,1.8,0,0,1,.769-1.554,3.785,3.785,0,0,1,2.234-.555,8.577,8.577,0,0,1,5.4,2.038l2.967-3.5a11.453,11.453,0,0,0-3.878-2.466,13.981,13.981,0,0,0-4.986-.822,12.022,12.022,0,0,0-4.771.91,7.694,7.694,0,0,0-3.324,2.593,6.532,6.532,0,0,0-1.2,3.9A6.636,6.636,0,0,0,108.365,41a13.622,13.622,0,0,0,5.933,3.181,19.056,19.056,0,0,1,2.663.983,3.085,3.085,0,0,1,1.269,1,2.566,2.566,0,0,1,.357,1.411,2.356,2.356,0,0,1-.929,1.948,4.12,4.12,0,0,1-2.609.733,9.648,9.648,0,0,1-6.183-2.43l-3.253,3.609a14.913,14.913,0,0,0,15.1,2.609,7.89,7.89,0,0,0,3.521-2.805,7.279,7.279,0,0,0,1.215-4.164,7.048,7.048,0,0,0-1.769-5.093" fill="#f4f1ec"/>
      <rect id="Rect치ngulo_1229" data-name="Rect치ngulo 1229" width="6.612" height="24.839" transform="translate(0 29.56)" fill="#f4f1ec"/>
      <path id="Trazado_909" data-name="Trazado 909" d="M74.036,19.06v6.417h2.5V16.608H74.245L71.1,18.486l1.121,1.682Z" fill="#f4f1ec"/>
      <path id="Trazado_910" data-name="Trazado 910" d="M81.574,25.738a3.128,3.128,0,0,0,2.648-1.22,5.632,5.632,0,0,0,.926-3.463,5.571,5.571,0,0,0-.926-3.449,3.507,3.507,0,0,0-5.295,0A5.564,5.564,0,0,0,78,21.055a5.625,5.625,0,0,0,.926,3.463,3.124,3.124,0,0,0,2.647,1.22m-.854-6.391a1.713,1.713,0,0,1,.287-.841.7.7,0,0,1,.567-.241.724.724,0,0,1,.574.221,1.623,1.623,0,0,1,.28.815,13.339,13.339,0,0,1,.085,1.754,13.35,13.35,0,0,1-.085,1.748,1.677,1.677,0,0,1-.28.828.712.712,0,0,1-.574.229.692.692,0,0,1-.567-.248,1.745,1.745,0,0,1-.287-.841,12.933,12.933,0,0,1-.085-1.716,12.951,12.951,0,0,1,.085-1.708" fill="#f4f1ec"/>
      <path id="Trazado_911" data-name="Trazado 911" d="M91.382,25.738a2.346,2.346,0,0,0,2.1-1.017,1.725,1.725,0,0,0,.731.7,3.175,3.175,0,0,0,1.148.268l.521-1.657a.589.589,0,0,1-.326-.267,1.224,1.224,0,0,1-.091-.541v-2.4a2.4,2.4,0,0,0-.744-1.937,3.657,3.657,0,0,0-2.386-.632,7.276,7.276,0,0,0-1.363.143,7.386,7.386,0,0,0-1.389.4l.561,1.644a8.462,8.462,0,0,1,1-.268,4.281,4.281,0,0,1,.8-.1,1.252,1.252,0,0,1,.8.182.922.922,0,0,1,.209.7v.169h-.5a4.291,4.291,0,0,0-2.5.613,2.043,2.043,0,0,0-.861,1.774,2.136,2.136,0,0,0,.633,1.6,2.274,2.274,0,0,0,1.663.62m.482-3.065a1.348,1.348,0,0,1,.809-.2h.274v1.03a1.048,1.048,0,0,1-.333.3.857.857,0,0,1-.437.117.531.531,0,0,1-.417-.176.811.811,0,0,1,.1-1.076" fill="#f4f1ec"/>
      <path id="Trazado_912" data-name="Trazado 912" d="M99.037,16.934a.542.542,0,0,1,.378-.131.49.49,0,0,1,.222.053,2.627,2.627,0,0,1,.261.156,2.688,2.688,0,0,0,.463.261,1.347,1.347,0,0,0,.528.091,1.508,1.508,0,0,0,1.109-.5,3.44,3.44,0,0,0,.756-1.279L101.541,15a1.761,1.761,0,0,1-.313.43.521.521,0,0,1-.365.13.489.489,0,0,1-.222-.052,2.71,2.71,0,0,1-.261-.156A2.5,2.5,0,0,0,99.9,15.1,1.491,1.491,0,0,0,99.35,15a1.461,1.461,0,0,0-1.089.5,3.536,3.536,0,0,0-.75,1.271l1.213.587a1.761,1.761,0,0,1,.313-.43" fill="#f4f1ec"/>
      <path id="Trazado_913" data-name="Trazado 913" d="M99.468,20.821q.442-.691.874-.691a.332.332,0,0,1,.293.143,1.027,1.027,0,0,1,.1.535v4.669h2.582V20.339a2.193,2.193,0,0,0-.5-1.539,1.771,1.771,0,0,0-1.376-.548,2.626,2.626,0,0,0-1.128.235,3.314,3.314,0,0,0-.985.743l-.182-.718H96.886v6.965h2.582Z" fill="#f4f1ec"/>
      <path id="Trazado_914" data-name="Trazado 914" d="M109.77,25.282a3.085,3.085,0,0,0,1.246-1.305,4.242,4.242,0,0,0,.437-1.969,3.8,3.8,0,0,0-.959-2.778,3.511,3.511,0,0,0-2.628-.978,3.813,3.813,0,0,0-1.9.456,3.08,3.08,0,0,0-1.245,1.3,4.236,4.236,0,0,0-.437,1.97,3.8,3.8,0,0,0,.958,2.778,3.511,3.511,0,0,0,2.628.978,3.811,3.811,0,0,0,1.9-.456m-2.621-1.833a3.486,3.486,0,0,1-.222-1.467,3.412,3.412,0,0,1,.222-1.435.805.805,0,0,1,1.435-.006,3.506,3.506,0,0,1,.221,1.467,3.432,3.432,0,0,1-.221,1.435.805.805,0,0,1-1.435.006" fill="#f4f1ec"/>
      <path id="Trazado_915" data-name="Trazado 915" d="M115.412,23.853a1.081,1.081,0,0,1-.541.111,2.42,2.42,0,0,1-.92-.189,3.451,3.451,0,0,1-.854-.5l-1.226,1.357a3.84,3.84,0,0,0,1.35.815,4.944,4.944,0,0,0,1.715.294,4.55,4.55,0,0,0,1.7-.3,2.715,2.715,0,0,0,1.174-.847,1.994,1.994,0,0,0,.423-1.252,1.914,1.914,0,0,0-.5-1.415,3.753,3.753,0,0,0-1.546-.829q-.653-.195-.946-.319a1.207,1.207,0,0,1-.371-.209.3.3,0,0,1-.078-.215c0-.209.195-.313.587-.313a2.8,2.8,0,0,1,.847.137,3.577,3.577,0,0,1,.809.372l.913-1.4a3.569,3.569,0,0,0-1.194-.659,4.6,4.6,0,0,0-1.48-.241,4.062,4.062,0,0,0-1.637.3,2.432,2.432,0,0,0-1.043.809,1.946,1.946,0,0,0-.359,1.148q0,1.656,2.022,2.256.651.195.913.293a.891.891,0,0,1,.345.2.413.413,0,0,1,.085.28.351.351,0,0,1-.189.32" fill="#f4f1ec"/>
      <path id="Trazado_916" data-name="Trazado 916" d="M27.083,25.63l10.956-3.935,10.5,5.826-3-8.711,5.732-2.347-7.628-2.729L38.753.661l-5.067,9.627L23.345,8.163l7.3,7.9Z" fill="#f4f1ec"/>
      <path id="Trazado_917" data-name="Trazado 917" d="M19.827,22.11l2.991-1.922,2.315,1.872-.969-2.735,2.35-1.509-2.811-.6-.808-2.8-1.119,2.39-4.258-.9,3.329,3.434Z" fill="#f4f1ec"/>
      <path id="Trazado_918" data-name="Trazado 918" d="M45,8.032l3.123-2.007,2.417,1.954L49.532,5.125l2.453-1.577-2.934-.621L48.208,0,46.785,2.443l-4.191-.891,3.474,3.584Z" fill="#f4f1ec"/>
    </g>
  </g>
</svg>
