<svg xmlns="http://www.w3.org/2000/svg" width="24.12" height="19.716" viewBox="0 0 24.12 19.716">
  <path id="Trazado_40" data-name="Trazado 40" d="M382.618,4245.846c-.88.318-1.739.623-2.594.937a.732.732,0,0,1-.828-.193,4.964,4.964,0,0,0-8.213,4.464,2.809,2.809,0,0,1,0,.386,14.326,14.326,0,0,1-10.244-5.217,5.126,5.126,0,0,0,1.476,6.631l-.072.091-2.1-.584a5.3,5.3,0,0,0,3.866,4.941H361.8a5.128,5.128,0,0,0,4.642,3.464,10.217,10.217,0,0,1-7.274,2.073c.194.127.264.177.338.221a13.879,13.879,0,0,0,6.38,1.947,13.508,13.508,0,0,0,7.73-1.694c4.794-2.811,7.107-7.1,7.254-12.6a.88.88,0,0,1,.369-.775,8.925,8.925,0,0,0,2.05-2.211c-.483.161-.894.316-1.317.431s-.863.187-1.3.279A5.742,5.742,0,0,0,382.618,4245.846Z" transform="translate(-359.171 -4245.318)" fill="#fff"/>
</svg>
