<svg xmlns="http://www.w3.org/2000/svg" xmlns:xlink="http://www.w3.org/1999/xlink" width="88.457" height="231.942" viewBox="0 0 88.457 231.942">
  <defs>
    <linearGradient id="linear-gradient" x1="0.5" x2="-0.211" y2="0.963" gradientUnits="objectBoundingBox">
      <stop offset="0" stop-color="#d4e04e"/>
      <stop offset="1" stop-color="#27ac97"/>
    </linearGradient>
  </defs>
  <path id="Sustracción_2" data-name="Sustracción 2" d="M-3347.751,1046.847h0c-3.245-20.164-6.027-34.248-9.022-45.666-3.36-12.81-7.052-22.461-11.617-30.372-8.216,3.36-17.286,8.727-28.544,16.891-11.581,8.4-24.657,19.179-37.064,29.579,10.7-12.72,21.767-26.113,30.269-37.895,8.261-11.448,13.612-20.678,16.841-29.045a100.011,100.011,0,0,0-18.549-10.193,258.083,258.083,0,0,0-24.709-8.978,257.966,257.966,0,0,0,24.709-8.977A99.969,99.969,0,0,0-3386.89,912c-3.229-8.366-8.58-17.595-16.841-29.044-8.49-11.766-19.565-25.167-30.269-37.9,12.4,10.393,25.47,21.172,37.064,29.579,11.257,8.164,20.327,13.531,28.544,16.892,4.565-7.91,8.257-17.561,11.617-30.372,2.995-11.419,5.778-25.5,9.023-45.671.442,2.744.887,5.455,1.327,8.058v215.251C-3346.85,1041.314-3347.3,1044.023-3347.751,1046.847Z" transform="translate(3434.382 -815.405)" stroke="rgba(0,0,0,0)" stroke-width="1" fill="url(#linear-gradient)"/>
</svg>
