<svg id="Grupo_796" data-name="Grupo 796" xmlns="http://www.w3.org/2000/svg" xmlns:xlink="http://www.w3.org/1999/xlink" width="743.838" height="389.89" viewBox="0 0 743.838 389.89">
  <defs>
    <clipPath id="clip-path">
      <rect id="Rectángulo_591" data-name="Rectángulo 591" width="743.838" height="389.89" fill="none"/>
    </clipPath>
  </defs>
  <g id="Grupo_795" data-name="Grupo 795" clip-path="url(#clip-path)">
    <path id="Trazado_656" data-name="Trazado 656" d="M.409,82.626a11.594,11.594,0,0,1,8.636-14.4l.165-.035c4.213-.863,8.293-2.363,12.5-3.261a9.271,9.271,0,0,1,4.73.571,50.708,50.708,0,0,1,5.9,2.987c-.277-1.288-.408-2.054-.61-2.8-2.1-7.811-4-15.687-6.4-23.4C23.1,35.1,30.114,25.306,37.469,24.4c1.885-.232,3.1.363,3.315,2.4a2.11,2.11,0,0,0,.043.223c1.358,6.06,1.572,6.177,6.638,2.93,1.952-1.251,3.7-1.148,5.322.457,1.5,1.488,2.867,3.112,4.39,4.575,4.732,4.546,9.546,5.138,15.261,1.948.394-.221.77-.477,1.166-.695,3.4-1.863,3.091-1.8,2.34-5.7a13.482,13.482,0,0,1,.758-6.773,70.6,70.6,0,0,1,4.523-9.351,2.7,2.7,0,0,1,2.082-1.2c4.918.383,7.164,2.3,8.293,6.917.181.74.545,1.939.773,2.667,1.01,3.227,1.129,3.114,4.666,2.5,2.253-.394,2.972-1.6,2.97-3.745,0-3.842.163-7.684.276-11.525A2.93,2.93,0,0,1,102.8,7.02c3.652-.952,7.264-2.059,10.9-3.06,2.045-.562,3.021.141,3.667,2.541,1.275,4.746,2.566,9.486,3.795,14.243.367,1.422.969,2.1,2.548,1.6a32.971,32.971,0,0,1,15.461-.925A58.377,58.377,0,0,0,166.66,19.1a36.715,36.715,0,0,1,6.422-1.143c2.319-.3,3.14-1.395,2.553-3.7-1.454-5.714-1.364-5.359,5.024-7.125,1.206-.334,2.392-.751,3.592-1.1,1.4-.411,2.3.072,3.069,1.4a44.933,44.933,0,0,0,3.029,4.5c1.946,2.6,3.483,2.924,6.487,1.629,2.836-1.223,5.6-2.781,8.57-3.482,4.684-1.108,9.508-1.622,14.272-2.391,2.31-.373,4.629-.7,6.925-1.146a4.453,4.453,0,0,1,5.169,2.3c1.272,2.224,2.553,4.45,3.7,6.741,1.7,3.406,4.218,4.412,7.609,2.886,3.078-1.385,3.795-1.214,6.088,1.232,1.134,1.211,2.418,2.283,3.53,3.512a17.01,17.01,0,0,1,2.748,3.55c2.067,4.114,1.6,5.1-2.705,6.349-4.835,1.405-8.042,4.629-10.116,9.076-.667,1.432-1.113,2.967-1.655,4.456a9.939,9.939,0,0,0,.993,9.436c3.352,5.256,3.209,10.861,1.034,16.493-1.045,2.7-2.712,7.149-3.644,9.894-1.43,4.213-3.192,5.555-7.874,6q-49.014,4.679-98.026,9.393-56.109,5.476-112.205,11.1c-3.3.327-6.607.732-9.921.877a14.841,14.841,0,0,1-3.772-.821Q3.98,95.822.409,82.626" transform="translate(0 -0.982)" fill="#5337f7"/>
    <path id="Trazado_657" data-name="Trazado 657" d="M636.543,479.023a7.856,7.856,0,0,1-8.826-3.6q-5.815-9.892-11.631-19.783c-.2-.341-.4-.682-.636-1.066a.939.939,0,0,0-1.544-.092c-.3.38-.57.74-.815,1.119-2.822,4.346-5.62,8.707-8.435,13.057a3.185,3.185,0,0,1-5.285.423c-4.09-4.495-3.906-5.379-.114-11.06,2.391-3.582,4.734-7.2,7.227-10.707,1.382-1.944,1.16-3.538-.279-5.3-3.1-3.8-6.083-7.694-9.166-11.509-.966-1.2-1.021-2.073.383-2.934,5.335-3.274,10.538-6.786,16.026-9.778a19.142,19.142,0,0,1,7.557-1.8c.683-.052,1.369-.068,2.061-.06a6.5,6.5,0,0,1,6.373,6.251c.309,7.372,4.415,13.679,7.629,20.1,1.365,2.726,5.079,4.3,7.806,6.287.324.236,1.317-.114,1.789-.471,2.82-2.133,5.591-4.333,8.352-6.542a4.143,4.143,0,0,0,1.766-4.37,84.592,84.592,0,0,0-2.307-8.232,7.947,7.947,0,0,0-2.307-2.986c-1.974-1.753-2.092-2.081-.315-4.166q9.482-11.124,19-22.214c3.149-3.662,3.189-4.12,1.142-8.422-1.726-3.626-3.225-7.361-5-10.959a15.784,15.784,0,0,0-3.438-4.481,10.611,10.611,0,0,1-3.575-8.935,108.073,108.073,0,0,1,4.415-22.25.935.935,0,0,1,1.79-.038l.005.018q5.282,19.36,10.509,38.735c1.6,5.908,2.839,11.947,4.917,17.681a62.853,62.853,0,0,0,6.347,11.9,12.915,12.915,0,0,1,2.465,7.339q-.372,20.7-.7,41.4c-.015.835-.127,1.669-.224,2.5a.937.937,0,0,1-.684.8Z" transform="translate(-155.058 -89.406)" fill="#606060"/>
    <path id="Trazado_658" data-name="Trazado 658" d="M989.516,48.088A1.315,1.315,0,0,1,988.6,49.7q-4.046,1.144-8.093,2.284c-6.1,1.711-12.207,3.432-18.318,5.121a4.736,4.736,0,0,1-5.829-3.328c-3.1-11.455-6.175-22.917-9.329-34.357-.565-2.046-.253-3.467,1.686-4.548C957.483,9.984,966.21,5.038,974.965.142l.013-.007A1.287,1.287,0,0,1,976.772,1Z" transform="translate(-246.179 0)" fill="#e81483"/>
    <path id="Trazado_659" data-name="Trazado 659" d="M262.761,176.412c-2.255,4.339-4.5,8.684-6.882,12.953a5.321,5.321,0,0,1-2.91,1.937q-12.18,3.953-24.425,7.7a12.044,12.044,0,0,0-7.168,5.483q-26.3,43.442-52.726,86.807a10.4,10.4,0,0,0-1.07,8.421c1.638,5.417,3.109,10.884,4.659,16.327.869,3.052.5,3.64-2.679,4.4a6.348,6.348,0,0,0-1.012.36c-4.505,2.12-6.054-.073-8.156-3.755a85.386,85.386,0,0,1-8.061-19.887q-3.149-11.479-6.166-22.994c-1.06-4.051-4.019-6.181-8.635-6.726a89.267,89.267,0,0,1-32.695-10.775c-3.256-1.8-5.549-1.616-7.355.727-1.028,1.333-2.048,2.679-3.16,3.941a5.763,5.763,0,0,1-7.491.948q-9.081-6-18.156-12.009c-1.262-.832-2.572-1.589-3.846-2.4-2.233-1.423-2.324-1.994-.525-4.023q6.768-7.634,13.572-15.236c2.21-2.483,4.607-4.832,6.555-7.509,2.57-3.53,6.158-5.087,10.09-6.393,11.032-3.664,22.015-7.48,33.031-11.2,4.221-1.424,8.491-2.7,12.714-4.12,3.563-1.2,3.774-1.888,2.078-5.212a16.717,16.717,0,0,0-9.591-8.187c-3.613-1.319-7.327-2.375-11.032-3.42a5.279,5.279,0,0,0-2.66.162c-16.405,4.465-32.813,8.924-49.188,13.5a8.183,8.183,0,0,1-7.987-1.66C52.053,186.646,46.265,176.4,43.76,164.1a121.092,121.092,0,0,0-3.592-12.868c-1.146-3.559-.778-4.477,2.99-4.879,13.5-1.441,27-2.8,40.5-4.215q22.271-2.342,44.535-4.738,20.575-2.182,41.151-4.344,23.623-2.493,47.244-4.99c6.073-.644,12.148-1.273,18.213-1.978,2.357-.275,3.695.708,4.419,2.894q6.663,20.112,13.374,40.206c.12.359.2.73.335,1.083,1.772,4.738,2.846,5.225,7.611,3.563l.041-.014,2.182,2.6" transform="translate(-10.295 -32.772)" fill="#d7db2e"/>
    <path id="Trazado_660" data-name="Trazado 660" d="M279.117,389.65c1.51-3.732.528-7.551-.991-11.438q-1.365-3.491-2.455-7.082c-.785-2.593-1.444-3.076-3.672-2.025A2.862,2.862,0,0,1,268.068,368a133.021,133.021,0,0,0-13.858-16.009c-1.482-1.456-1.557-2.6-.061-3.856,2.975-2.5,3.082-3.718,1.177-7.195-.941-1.715-1.663-3.549-2.54-5.3-1.052-2.1-.511-3.73,1.224-5.192,3.971-3.349,3.022-10.906-1.632-13.277-6.857-3.493-11.673-2.81-17.553,1.965-3.035,2.464-6.472,4.434-9.749,6.595-1.077.71-1.7.143-1.992-.92-.994-3.647-2.154-7.265-2.842-10.97a6.63,6.63,0,0,1,1.17-4.168q22.168-35.742,44.466-71.4c2.959-4.746,5.977-9.456,8.854-14.25a7.474,7.474,0,0,1,4.747-3.539c7.157-1.915,14.349-3.725,21.429-5.9a8.909,8.909,0,0,0,4.65-3.538c4.145-6.853,7.995-13.887,11.872-20.9,2.076-3.753,2.489-4,6.307-2.232q36.2,16.8,72.378,33.642c2.991,1.392,3.049,1.811.9,4.374q-23.965,28.581-47.929,57.163c-2.153,2.568-2.777,2.664-5.743.99q-6.221-3.512-12.457-7c-2.335-1.3-2.976-1.087-4.168,1.411q-11.661,24.459-23.316,48.923-7.375,15.451-14.8,30.879c-1.812,3.767-1.821,4.574,1.484,6.453.717.407,1.3,1.037,2.012,1.466,3.914,2.37,5.292,5.966,3.735,10.376-.225.639-1.254,1.135-2.016,1.41-1.341.485-2.852.553-4.128,1.148-1.889.881-2.493,2.673-2.671,4.677-.186,2.1-.464,4.2-.8,6.277a3.949,3.949,0,0,1-4.137,3.707h-.058a3.06,3.06,0,0,1-2.91-4.161" transform="translate(-57.254 -48.584)" fill="#606060"/>
    <path id="Trazado_661" data-name="Trazado 661" d="M348.96,392.1a5.9,5.9,0,0,1-4.566-4.9c-.2-1.177-.378-2.326-.519-3.481-.872-7.174-.914-6.891-9.065-7.059-.714-.015-1.433.036-2.146.073-1.783.092-2.618-.858-2.205-2.474.94-3.683-.528-5.894-3.8-7.421-2.082-.974-2.221-1.931-1.04-4.515,3.422-7.494,6.878-14.971,10.3-22.465q10.4-22.793,20.766-45.6c1.76-3.87,2.2-4.033,6.164-2.31,3.257,1.414,6.539,2.771,9.811,4.148,2.452,1.032,3.695.713,5.749-1.6q11.674-13.13,23.32-26.284,27.775-31.278,55.559-62.546l.027-.03a3.275,3.275,0,0,1,5.221.471c1.261,2.033,2.48,4.035,3.585,6.1.364.681-.136,2.056-.6,2.912-3.755,6.906-7.6,13.764-11.414,20.634-1.738,3.127-1.548,3.789,1.413,5.944q8.157,5.935,16.254,11.951c2.028,1.5,2.109,2.411.362,4.477-10.93,12.928-21.941,25.786-32.758,38.808a33.9,33.9,0,0,0-4.85,8.337c-1.474,3.452-2.392,7.142-3.525,10.738a9.334,9.334,0,0,0,2.745,9.723,56.653,56.653,0,0,1,5.42,5.9,5.2,5.2,0,0,1,.6,5.961c-1.231,2.447-.938,4.742.017,7.2,1.111,2.855,1.937,5.819,3.013,9.124l.064.01c2.617-3.363,7.6-.365,6.146,3.28a10.986,10.986,0,0,1-7.477,6.335c-.555.154-1.118.3-1.666.479-4,1.308-4.817,2.025-3.983,5.181,1.216,4.6,2.471,9.2,3.724,13.788a4.456,4.456,0,0,1-2.746,5.346c-3.209,1.2-6.338,2.615-9.493,3.959a2.637,2.637,0,0,0-1.632,3.5q.736,2.618,1.5,5.229c.382,1.295.072,2.119-1.3,2.489-1.989.539-3.98,1.066-5.949,1.674a6.682,6.682,0,0,1-6.973-1.569c-2.082-1.962-4.2-3.909-6.086-6.048-2.534-2.868-5.555-4.088-9.3-3.34-1.621.324-3.186.918-4.8,1.271a5.314,5.314,0,0,0-4.353,4.406c-1.018,5.152-4.407,7.476-9.17,8.377a22.151,22.151,0,0,0-3.534.891c-1.779.653-2.455-.115-2.61-1.65-.068-.675-.054-1.363-.178-2.028-.688-3.707-2.989-5.47-6.645-4.635-5.579,1.274-9.78-.618-13.007-5.079-1.252-1.732-2.525-3.339-4.376-3.687" transform="translate(-84.474 -53.188)" fill="#e81483"/>
    <path id="Trazado_662" data-name="Trazado 662" d="M548.39,400.014a4.827,4.827,0,0,1-4.709-7.022c1.537-2.979,3.058-5.911,4.628-8.815,1.073-1.985,1.151-3.55-.6-5.255-2.1-2.049-3.977-4.33-5.9-6.553a6.216,6.216,0,0,1-.584-7.4,48.439,48.439,0,0,1,4.446-5.7c3.58-4.1,3.82-7.059,1.1-11.684-3.359-5.719-6.573-11.525-9.825-17.306-1.723-3.064-2.624-3.47-6.042-2.56-4.168,1.109-6.239.347-8.729-3.213-1.9-2.71-3.467-3.072-6.014-1.04-5.174,4.125-10.591,4.128-16.405,1.186-3.356-1.7-6.827-3.16-10.314-4.57-3.089-1.25-3.518-1.88-1.58-4.148q16.494-19.3,33.034-38.566a9.3,9.3,0,0,1,9.566-3.194c10.371,2.079,20.77,4.024,31.121,6.2,3.591.753,6.4.095,9.041-2.561,3.137-3.158,6.608-5.983,9.932-8.955,1.251-1.119,2.312-1.333,3.22.444,2.844,5.563,7.586,8.73,13.488,10.178,9.757,2.393,19.553,4.626,29.331,6.928,3.6.849,4.147,1.626,4.836,5.3.961,5.121,2.065,10.219,3.273,15.287a12.813,12.813,0,0,1-.3,7.111c-3.081,9.646-6.035,19.333-9.165,28.962a16.19,16.19,0,0,0,1.083,12.617,9.828,9.828,0,0,1,.874,2.973c.3,2.211,1.131,2.774,2.655,2.191,1.665-.636,2.745-.044,3.51,1.473.474.942,1.081,1.816,1.579,2.746,2.8,5.241,2.263,9.424-1.633,13.953q-6.276,7.295-12.415,14.7c-4.208,5.054-4.779,10.787-2.77,16.84a7.332,7.332,0,0,0,2.332,2.916c1.43,1.212,1.675,2.422.587,3.915-.4.549-.8,1.1-1.251,1.608-2.516,2.83-3.268,2.609-5.656-.366-3.3-4.111-6.45-8.283-7.227-13.623a49.489,49.489,0,0,1-.271-8.988c.132-3.421-1.071-4.6-4.46-3.849-9.186,2.036-16.482-.867-22.034-8.376-2.927-3.957-4.163-4.037-7.958-.786-5.385,4.615-10.82,9.171-16.249,13.733a13.371,13.371,0,0,1-7.555,3.268" transform="translate(-126.549 -69.681)" fill="#606060"/>
    <path id="Trazado_663" data-name="Trazado 663" d="M884.3,59.586c.217,1.034.592,2.041.741,3.082.362,2.528-.471,3.822-3.032,4.04-2.393.2-3.007,1.307-2.536,3.422.492,2.207.918,4.433,1.5,6.616.518,1.942,1.949,2.477,3.705,1.757,1.951-.8,3.843-1.761,5.715-2.739,5.728-2.991,11.485-3.784,17.623-1.023,5.719,2.573,11.573,2.193,17.465.17a107.307,107.307,0,0,1,11.353-3.086c3.01-.676,3.7-.178,4.878,2.606.411.971.756,1.974,1.073,2.981,1.475,4.686,1.031,6.323-2.91,8.425-3.174,1.692-3.906,4.617-2.789,8.468,1.471,5.075,2.98,10.139,4.419,15.223.849,3,.311,3.69-2.781,3.751q-9.519.19-19.039.348c-3.6.065-3.906.655-5.1,4.828a4.691,4.691,0,0,1-.34.85c-3.123,6.049-3.741,12.1-.992,18.243,1.191,2.66.511,3.822-2.379,4.087q-15.68,1.436-31.366,2.8c-3.992.344-5.059,1.132-6.262,4.991-2.368,7.589-2.491,7.122-11.855,6.127a14.069,14.069,0,0,0-1.9-.05c-5.224.156-9.026-1.931-11.4-6.408-2.295-4.331-2.724-4.509-7.484-3.206-6.852,1.877-13.7,3.779-20.549,5.661-3.723,1.023-3.755.668-4.792-3.9-.331-1.456-.65-2.92-.875-4.4-.746-4.9-2.938-6.478-7.313-5.088-4.312,1.369-8.63,2.725-12.9,4.207-7.2,2.5-14.034,1.127-20.628-2.022a5.784,5.784,0,0,1-2.318-3.064c-1.027-2.667-1.681-5.474-2.625-8.176-2.048-5.861,2.869-13.238,9.434-13.835,9.348-.851,18.713-1.541,28.079-2.13a71.222,71.222,0,0,1,7.312-10.439c1.87-2.378,2.852-4.922,2.127-8-.545-2.312.042-3.177,2.417-3.627q11.244-2.133,22.5-4.191c3.046-.556,3.808-1.235,4.491-4.233,1.324-5.816,2.713-11.617,3.961-17.449.486-2.272,1.606-3.583,3.956-4,5.275-.946,10.517-2.073,15.79-3.03,3.326-.6,3.983-1.33,3.613-4.646-.267-2.4-.644-4.787-.844-7.191-.224-2.686.638-3.613,3.247-3.764,3.533-.2,3.533-.2,3.3-3.848a5.012,5.012,0,0,1,3.488-5.457q5.265-2.07,10.5-4.219c2.767-1.139,3.252-.97,3.966,1.837,2.049,8.054,4.019,16.128,6.113,24.169.482,1.851-.073,2.762-1.876,3.02-2.465.352-4.925.818-7.4.972-3.906.245-6.965-1.877-9.509-4.951.378,1.822.653,3.664,1.035,5.486" transform="translate(-199.728 -7.383)" fill="#606060"/>
    <path id="Trazado_664" data-name="Trazado 664" d="M724.751,44.435,719.1,46.891c6.281,1.5,6.1,6.479,7.22,10.676a48.429,48.429,0,0,0,1.5,5.2c1.192,3.033,2.853,3.983,6.023,3.32,3.619-.756,7.19-1.749,10.78-2.642,2.116-.527,4.219-1.109,6.346-1.583,3.165-.7,4.243-2.059,4.029-5.229-.212-3.154.688-4.105,3.861-4.534,10.917-1.474,21.817-3.084,32.747-4.456a8.522,8.522,0,0,1,4.894,1.046c6.583,3.71,13.011,7.691,19.559,11.466,2.056,1.185,2.525,2.64,1.784,5.052a132.023,132.023,0,0,0-3.177,14.3,4.8,4.8,0,0,1-4.231,4.274c-7.875,1.455-15.74,2.968-23.611,4.442-2.919.547-3.6,1.376-3.374,4.265.047.6.113,1.2.172,1.8.808,8.269-4.067,14.561-12.305,15.483-6.373.713-12.8,1.609-19.178,1.459-9.048-.212-18.53,13.891-12.881,21.746,1.558,2.167,1.021,3.094-1.581,3.922a46.55,46.55,0,0,1-4.622,1.092c-1.54.323-2.305-.422-2.356-1.921-.215-6.351-3.964-9.671-9.562-11.788-17.034-6.442-34.007-13.048-51-19.59-.212-.081-.428-.152-.638-.238-3.033-1.242-3.257-1.983-1.365-4.61,2.429-3.373,4.881-6.729,7.3-10.109,3.607-5.039,7.162-10.116,10.8-15.131,2.112-2.911,2.809-5.807,1.167-9.279-3.163-6.685-1.521-12.43,3.819-17.364a14.972,14.972,0,0,0,2.805-3.8c2.549-4.636,6.439-7.4,11.409-9.037a17.132,17.132,0,0,1,12.933.341c1.986.875,4.023,1.638,6.138,2.379a3.542,3.542,0,0,1,.247,6.593" transform="translate(-173.409 -8.846)" fill="#e81483"/>
    <path id="Trazado_665" data-name="Trazado 665" d="M825.155,287.118a4.123,4.123,0,0,1-1.168,7.562l-.059.013c-4.66,1.047-8.288,3.036-9.809,7.144a3.222,3.222,0,0,1-5.036,1.476l-.189-.151c-3.123-2.508-6.208-5.065-9.379-7.51-1.292-1-1.487-2.016-.588-3.282s1.9-2.477,2.793-3.758a3.8,3.8,0,0,0-.71-5.042c-1.9-1.544-3.843-3.06-5.874-4.427-2.813-1.894-6.032-1.419-9.21-1.482-4.268-.084-7.006,1.306-8.477,5.622-1.013,2.973-2.447,3.167-5.093,1.573a10.7,10.7,0,0,0-9.593-.739c-3.118,1.126-6.178,2.438-9.194,3.818-3.7,1.695-5.227,7.693-2.759,10.885a3.6,3.6,0,0,0,2.338,1.111c5.76.488,8.921,3.819,11.1,8.955,1.2,2.812,3.459,5.232,5.508,7.6,1.669,1.928,3.8,3.447,5.608,5.269,2.009,2.029,2.1,3.345.613,5.585-.453.684-.906,1.37-1.337,2.068-2.614,4.228-3.67,4.79-7.831,2.684a5.86,5.86,0,0,1-2.112-2.71c-.848-1.763-1.437-3.648-2.173-5.467a23.079,23.079,0,0,0-1.131-2.046,88.113,88.113,0,0,1-3.271,9.5,20.284,20.284,0,0,1-4.331,5.867c-1.921,1.826-3.554,1.423-4.717-.916a3.451,3.451,0,0,0-4.406-2.1c-3.813.946-7.645,1.835-11.405,2.961a4.815,4.815,0,0,0-2.186,2.125c-1.7,2.728-3.283,5.534-4.88,8.327A8.085,8.085,0,0,0,727.265,357a8.779,8.779,0,0,1,2.267,6.673c-.054.8-.116,1.605-.183,2.412a4.752,4.752,0,0,1-6.727,3.943,11.475,11.475,0,0,1-5.073-4.568,63.606,63.606,0,0,1-8.324-21.144c-.913-4.727-2.6-9.3-3.934-13.949-.229-.8-.495-1.59-.678-2.4-.46-2.039.238-3.318,2.369-3.863,5.418-1.385,10.813-2.858,16.219-4.293,3.089-.821,3.721-1.918,3.189-5.1q-1.4-8.377-2.66-16.776c-.408-2.713,1.165-4.564,3-6.251q11.248-10.358,22.5-20.718,25.82-23.8,51.648-47.6c2.954-2.716,4.481-5.64,2.465-9.608-1.116-2.2-.039-3.968,2.459-5.139a51.56,51.56,0,0,0,14.261-9.56c2.635-2.57,3.831-2.586,4.607-.233a9.391,9.391,0,0,1-1.064,8.619c-2.466,3.8-4.743,7.728-7.049,11.63a9.453,9.453,0,0,0,5.333,14.074c6.49,2.014,13.013,3.923,19.536,5.83a6.654,6.654,0,0,1,5.114,6.786,2.694,2.694,0,0,1-1.423,1.744c-2.364,1.153-3.6,4.493-2.044,6.5.368.477,1.9.5,2.633.162,2.267-1.062,3.056.058,3.759,1.95a11.117,11.117,0,0,1-6.4,14.063c-2.636,1.117-5.568,1.536-8.354,2.3a6.087,6.087,0,0,0-4.348,5.278c-.217,1.919-1.1,2.085-2.647,1.265-4.487-2.378-8.886-1.707-13.263.349-1.708.8-2.415,2-1.749,3.879.266.75.447,1.53.656,2.3a1.833,1.833,0,0,0,2.464,1.4c.665-.141,1.318-.34,1.981-.488,2.971-.667,5.383-.481,7.355.641" transform="translate(-183.176 -51.249)" fill="#606060"/>
    <path id="Trazado_666" data-name="Trazado 666" d="M632.727,243.5a3.854,3.854,0,0,1-4.841,4.776q-4.121-1.274-8.231-2.519c-3.83-1.153-7.662-2.313-11.532-3.322-6.748-1.758-11.829-5.474-14.814-11.917-1.32-2.85-2.13-2.957-4.582-.921-5.241,4.351-10.5,8.681-15.672,13.117a7.3,7.3,0,0,1-6.02,1.66c-10.42-1.842-20.839-3.7-31.3-5.31-4-.616-6.84-3.049-9.931-5.169-4.737-3.248-9.413-6.584-14.136-9.853a3.5,3.5,0,0,1-.932-4.812c3.915-5.917,7.781-11.867,11.747-17.749a4.622,4.622,0,0,0-.076-6c-2.465-3.334-4.684-6.849-7.124-10.2-1.637-2.251-1.168-3.943,1.863-6.188a82.406,82.406,0,0,0,20.29-21.7c2.287-3.561,4.25-3.638,6.826-2.341Q559.86,162.9,575.5,170.666q20,9.941,40.039,19.8a7.192,7.192,0,0,1,4.169,4.957Q626.014,219.1,632.5,242.72q.108.391.225.779" transform="translate(-132.65 -40.115)" fill="#606060"/>
    <path id="Trazado_667" data-name="Trazado 667" d="M476.677,84.338c-4.085.382-8.191.784-12.3,1.148q-52.561,4.655-105.123,9.3-10.15.9-20.3,1.787c-2.69.233-3.331-.485-2.5-3.149,2.093-6.686,3.653-13.506,2.716-20.494a109.778,109.778,0,0,0-3.544-15.388c-.587-2.058-.43-3.469,1.113-4.836a45.194,45.194,0,0,1,15.412-8.845c3.774-1.3,7.7-2.153,11.533-3.3,1.9-.568,3.094.013,4.155,1.661,2.06,3.2,4.3,6.284,6.877,10.01.252-1.605.486-3.091.714-4.536a3.715,3.715,0,0,1,6.21-2.133,11.924,11.924,0,0,1,3.766,6.275c.642,2.93,1.069,3.02,3.808,1.652a17.18,17.18,0,0,1,5.029-1.906,7.533,7.533,0,0,1,4.28.884,3.064,3.064,0,0,0,3.516-.149c2.486-1.564,5.007-3.078,7.575-4.5,3.163-1.754,6.135-1.219,8.777,1.13,1.407,1.252,2.648,2.691,4.031,3.97a8.124,8.124,0,0,0,8.561,2.029c2.369-.769,4.8-1.365,7.213-1.976,2.2-.556,3.089-.005,3.656,2.158.231.88.363,1.786.622,2.659a4.558,4.558,0,0,0,4.385,3.2c1.542,0,3.085.117,4.627.19,3.172.15,4.891-.728,5.658-3.694,1-3.858,4.922-6.221,9.081-5.888a3.1,3.1,0,0,1,2.3,1.6c2.83,10.04,5.511,20.123,8.216,30.2a3.815,3.815,0,0,1-.07.943" transform="translate(-87.187 -10.493)" fill="#606060"/>
    <path id="Trazado_668" data-name="Trazado 668" d="M405.379,177.772c6.841-7.509,13.6-14.937,20.37-22.354,4.279-4.686,8.529-9.4,12.888-14.012a7.261,7.261,0,0,0,1.856-7.278c-1.366-5.574-2.631-11.173-3.938-16.762-.7-2.977-.093-3.928,2.907-4.255,9.745-1.063,19.5-2.058,29.24-3.126,7.646-.838,15.286-1.735,22.925-2.627,3.151-.368,4.03.159,4.855,3.28,1.273,4.819,2.431,9.668,3.729,14.48,1.12,4.155,2.338,8.285,3.571,12.409a5.676,5.676,0,0,1-1.484,5.991q-24.283,26.007-48.465,52.107c-1.1,1.188-2.2,1.675-3.792,1.01q-22.075-9.189-44.171-18.329c-.121-.05-.2-.207-.491-.535" transform="translate(-105.405 -27.888)" fill="#5337f7"/>
    <path id="Trazado_669" data-name="Trazado 669" d="M686.421,239.521a3.782,3.782,0,0,1,6.217-1.563c3.423,3.289,6.725,6.46,9.994,9.664,3.523,3.452,4.279,3.415,8.031.111q8.164-7.187,16.536-14.137a13.017,13.017,0,0,1,12.077-2.915c3.043.787,5.406-.122,7.554-2.333,3.841-3.951,7.857-7.731,11.719-11.661,5.141-5.232,11.5-7.975,18.585-9.191,8.562-1.47,21.705-.016,18.723,1.94-1.073.7-2.214,1.314-3.239,2.082-2.907,2.176-3.459,4.179-1.877,7.458.867,1.8.281,2.931-1.046,4.138-10.736,9.762-21.422,19.579-32.154,29.346q-21.459,19.528-42.958,39.01c-3.881,3.527-4.225,5.826-2.44,10.893,1.227,3.482,2.011,7.122,2.932,10.708.455,1.773-.605,2.769-3.05,2.892a27.81,27.81,0,0,0-11.52,3.042c-3.114,1.626-4.213.918-4.643-1.123-.855-4.066-1.74-8.127-2.58-12.2q-4.329-20.973-8.636-41.951c-.593-2.886-1.35-5.75-1.724-8.664a13.519,13.519,0,0,1,.32-5.3c.969-3.4,2.048-6.758,3.179-10.253" transform="translate(-177.539 -53.796)" fill="#5337f7"/>
    <path id="Trazado_670" data-name="Trazado 670" d="M327.716,144.76c-1.538-5.691-3.091-11.379-4.612-17.075-.606-2.272-.155-2.875,2.156-3.073q38.881-3.333,77.764-6.66c4.814-.409,5.653.191,6.855,4.8,1.121,4.306,2.144,8.639,3.243,12.95.768,3.016-.287,5.556-2.186,7.739-2.625,3.019-5.457,5.857-8.139,8.827q-9.949,11.016-19.838,22.089c-3.234,3.616-4.39,3.784-8.813,1.629-6.381-3.108-12.742-6.28-19.259-9.081a33.541,33.541,0,0,0-17.322-2.373c-4.04.468-4.535.025-5.6-4.014-1.382-5.264-2.834-10.509-4.253-15.762" transform="translate(-83.949 -30.642)" fill="#606060"/>
    <path id="Trazado_671" data-name="Trazado 671" d="M774.061,180.407c3.615-.77,7.227-1.555,10.847-2.3,1.71-.352,2.776.422,2.981,2.567a9.105,9.105,0,0,0,.733,2.745c.913,2.11.471,3.2-1.476,3.556-7.281,1.319-14.541,2.768-21.844,3.95a10.492,10.492,0,0,0-7.334,4.325c-3.653,5-7.506,9.857-11.281,14.768-2.031,2.642-2.969,2.993-5.986,1.8-4.758-1.89-8.634-.334-12.289,2.739-5.8,4.874-11.656,9.675-17.519,14.47a3.575,3.575,0,0,1-4.881-.344c-1.539-1.653-3.123-3.277-4.805-4.78a18.626,18.626,0,0,1-6.5-17.023,26.332,26.332,0,0,0-1.8-12.629c-.078-.212-.169-.421-.265-.625-3.088-6.609-3.292-12.813.906-19.282,3.225-4.968,5.412-10.619,7.97-16.009,1.969-4.151,2.85-4.557,7.188-3.375q8.417,2.291,16.9,4.347c4.152,1.012,5.364,2.264,6.232,6.379a59.872,59.872,0,0,0,2.075,7.414c.98,2.8,2.156,3.36,5.074,2.9a9.738,9.738,0,0,0,1.052-.26c3.691-1.111,6.745-.277,10,2.225,6.066,4.66,13.22,5.116,20.543,3.5,1.18-.259,2.336-.624,3.5-.94-.008-.038-.016-.078-.024-.116" transform="translate(-179.504 -40.141)" fill="#606060"/>
    <path id="Trazado_672" data-name="Trazado 672" d="M534.569,97.45,524.99,62.059a1.006,1.006,0,0,1,1.239-1.243l.016.005c5.671,1.856,11.365,3.649,16.994,5.625a23.544,23.544,0,0,0,17.447-.2c3.8-1.575,5.5-.941,7.786,2.572,1.943,2.993,4.085,3.8,7.5,3.294,5.668-.849,11.364-1.514,17.049-2.251a2.258,2.258,0,0,1,2.747,1.776,61.02,61.02,0,0,1,1.606,7.028c.8,5.918,4.487,9.715,9.055,12.956,4.5,3.2,4.672,3.14,7.352-1.632,2.192-3.9,2.088-7.535-.118-11.553a112.733,112.733,0,0,1-5.97-13.672c-.276-.713.539-2.378,1.314-2.874,3.111-1.988,6.373-3.748,9.652-5.454a4.7,4.7,0,0,1,3.023-.565c5.315,1.387,10.608,2.876,15.834,4.559a4.28,4.28,0,0,1,2.153,2.574c1.071,3.33,1.985,6.719,2.76,10.13a5.672,5.672,0,0,1-.711,3.815c-7.013,10.592-14.12,21.122-21.189,31.677-1.7,2.532-2.661,2.922-5.5,1.9q-28.479-10.238-56.948-20.5c-.983-.354-1.977-.683-2.95-1.064a9.422,9.422,0,0,0-9.4,1.554c-3.074,2.533-6.268,4.924-9.569,7.465a1.013,1.013,0,0,1-1.6-.534" transform="translate(-136.497 -14.508)" fill="#5337f7"/>
    <path id="Trazado_673" data-name="Trazado 673" d="M543.254,129.632c-.667-3.093-1.382-6.177-1.983-9.284a4.723,4.723,0,0,1,1.6-4.917,90.308,90.308,0,0,1,8.46-6.014c4.543-2.713,9.311-1.943,13.975-.156,12.55,4.808,25.075,9.68,37.63,14.476,4.584,1.752,9.231,3.339,13.834,5.046,3.247,1.2,3.578,2,2.114,5.024q-6.324,13.046-12.69,26.071c-1.217,2.49-2.095,2.769-4.922,1.352q-17.01-8.526-33.983-17.128c-4.311-2.181-8.568-4.469-12.908-6.592a16.7,16.7,0,0,0-3.695-.958c-3.837-.858-6.619-2.851-7.435-6.92" transform="translate(-140.706 -27.989)" fill="#606060"/>
    <path id="Trazado_674" data-name="Trazado 674" d="M670.9,213.7a2.485,2.485,0,0,1-4.71.072c-.656-1.854-1.284-3.65-1.886-5.454-1.939-5.8-3.759-11.638-5.712-17.433-1.141-3.385-3.623-5.679-6.579-7.517-4.813-2.994-9.6-6.023-14.45-8.963-2.109-1.279-2.371-2.772-.757-5.3a130.569,130.569,0,0,0,14.523-29.881c.926-2.861,2.354-3.753,4.706-3.009,8.718,2.761,17.453,5.466,26.167,8.239,2.579.82,2.912,1.785,1.563,4.243-5.2,9.475-10.379,18.962-15.663,28.391a9.418,9.418,0,0,0-.941,7.989c1.749,5.525,3.366,11.109,4.684,16.75.956,4.091.288,7.944-.944,11.873" transform="translate(-165.308 -35.354)" fill="#606060"/>
    <path id="Trazado_675" data-name="Trazado 675" d="M590.193,45.753c9.686-2.622,19.41-5.116,29.04-7.932,3.473-1.015,6.184-.778,8.42,2.217.675.9,1.5,1.693,2.234,2.554,2.651,3.111,2.522,4.336-.842,6.746-2.083,1.493-4.265,2.845-6.365,4.315-4.435,3.1-4.9,4.424-2.779,9.466,1.488,3.537,3.3,6.94,4.962,10.4A9.5,9.5,0,0,1,625.188,81c-.567,1.655-1.6,1.809-2.69.7a12.256,12.256,0,0,1-2.646-3.59q-3.093-7.294-5.843-14.732c-1.661-4.478-2.532-5.015-7.185-4.264-5.142.83-10.3,1.538-15.464,2.249-2.674.368-3.314-.148-4.043-2.688-.476-1.659-1.017-3.306-1.645-4.914-2.041-5.224-.96-7.32,4.521-8.012" transform="translate(-152.035 -9.693)" fill="#606060"/>
  </g>
</svg>
