<svg xmlns="http://www.w3.org/2000/svg" width="27.889" height="29.692" viewBox="0 0 27.889 29.692">
  <path id="Trazado_992" data-name="Trazado 992" d="M13.6,0c-.928,4.665-1.78,7.63-3.254,9.695C7.628,8.8,4.507,6.825,0,3.77c3.89,3.74,6.361,6.3,7.427,8.534a27.44,27.44,0,0,1-6.82,2.444,27.431,27.431,0,0,1,6.82,2.444C6.361,19.428,3.89,21.986,0,25.727,4.507,22.672,7.628,20.7,10.344,19.8c1.474,2.065,2.326,5.029,3.254,9.695.928-4.666,1.78-7.63,3.254-9.695,2.716.9,5.837,2.87,10.344,5.925-3.89-3.741-6.36-6.3-7.427-8.534a27.432,27.432,0,0,1,6.82-2.444,27.441,27.441,0,0,1-6.82-2.444C20.836,10.068,23.306,7.51,27.2,3.77,22.689,6.825,19.568,8.8,16.852,9.695,15.378,7.63,14.527,4.665,13.6,0Z" transform="translate(27.543 29.594) rotate(180)" stroke="rgba(0,0,0,0)" stroke-width="1"/>
</svg>
